<svg width="442" height="398" viewBox="0 0 442 398" fill="none" xmlns="http://www.w3.org/2000/svg">
<path d="M111.267 397.499L46.9851 397.436C11.1932 397.412 -11.3535 359.725 6.63791 329.527L187.951 22.8274C196.258 8.79475 211.658 0.154698 228.435 0.114585L289.09 0.0957148C324.698 0.0715464 347.227 37.4665 329.72 67.6953L151.965 374.363C143.676 388.688 128.16 397.393 111.384 397.434L111.267 397.499Z" fill="url(#paint0_linear_687_17)"/>
<path d="M367.001 213.965C349.084 183.808 304.235 183.726 286.244 213.925L217.696 329.475C199.705 359.674 222.135 397.426 258.043 397.384L395.296 397.473C431.204 397.431 453.623 359.76 435.638 329.49L367.001 213.965Z" fill="#AAFFE0"/>
<defs>
<linearGradient id="paint0_linear_687_17" x1="193.109" y1="60.8511" x2="311.663" y2="404.132" gradientUnits="userSpaceOnUse">
<stop stop-color="#70A996"/>
<stop offset="0.703125" stop-color="#AAFFE0"/>
</linearGradient>
</defs>
</svg>
