<svg width="601" height="180" viewBox="0 0 601 180" fill="none" xmlns="http://www.w3.org/2000/svg">
<g clip-path="url(#clip0_687_4)">
<path d="M178.339 0H192.041C199.683 0 204.48 8.27341 200.66 14.9094L161.993 82.217C160.212 85.2908 156.937 87.2155 153.375 87.2155H140.448C132.835 87.2155 128.066 79.0283 131.772 72.3923L169.663 5.05597C171.415 1.92472 174.748 0 178.339 0Z" fill="white"/>
<path d="M123.786 40.2467C127.607 46.8827 137.173 46.8827 140.994 40.2467L148.319 27.578L155.645 14.9094C159.465 8.27341 154.697 0 147.027 0H117.754C110.112 0 105.315 8.27341 109.135 14.9094L116.461 27.578L123.786 40.2467Z" fill="white"/>
<path d="M117.782 162.222L110.916 174.086C107.096 180.693 97.5294 180.722 93.7087 174.086L54.7548 106.951C52.9737 103.877 52.9737 100.085 54.7548 96.9824L61.2184 85.7788C65.0103 79.2003 74.519 79.1429 78.3972 85.6927L117.725 152.167C119.563 155.27 119.563 159.09 117.782 162.193V162.222Z" fill="white"/>
<path d="M110.17 94.8564C102.528 94.8564 97.7308 103.13 101.552 109.766L108.877 122.434L116.202 135.103C120.023 141.739 129.589 141.739 133.41 135.103L140.735 122.434L148.061 109.766C151.881 103.13 147.113 94.8564 139.443 94.8564H124.82H110.198H110.17Z" fill="white"/>
<path d="M8.2174 26.946L1.35162 15.0817C-2.46908 8.44577 2.29962 0.172363 9.94103 0.172363L87.5617 0C91.1239 0 94.3987 1.89599 96.1798 4.96979L102.643 16.1734C106.435 22.7519 101.753 30.9966 94.1402 31.0827L16.9217 31.9158C13.3308 31.9445 9.99848 30.0486 8.2174 26.946Z" fill="white"/>
<path d="M70.3249 54.0646C74.1457 47.4287 69.3769 39.1553 61.7068 39.1553H47.0847H32.4626C24.8212 39.1553 20.0238 47.4287 23.8445 54.0646L31.1699 66.7333L38.4953 79.402C42.316 86.0379 51.8821 86.0379 55.7028 79.402L63.0283 66.7333L70.3537 54.0646H70.3249Z" fill="white"/>
<path d="M233.092 105.371V67.2219C233.092 55.5012 236.453 47.0842 243.175 41.942C249.898 36.8286 260.785 34.2432 275.838 34.2432C290.087 34.2432 300.371 36.7137 306.691 41.626C313.011 46.5671 316.171 55.0703 316.171 67.1932V88.5661H251.248V103.16C251.248 109.824 253.575 114.622 258.228 117.552C262.882 120.482 270.093 121.947 279.803 121.947C288.995 121.947 299.854 120.338 312.379 117.15V130.939C300.113 133.61 288.478 134.932 277.418 134.932C247.858 134.932 233.063 125.078 233.063 105.371H233.092ZM298.217 76.788V61.5914C298.217 55.731 296.436 51.7092 292.931 49.4973C289.397 47.2853 283.365 46.1936 274.861 46.1936C266.358 46.1936 260.613 47.2853 256.878 49.4973C253.144 51.6805 251.276 55.731 251.276 61.5914V76.788H298.217Z" fill="white"/>
<path d="M331.598 36.2541H349.581V48.0322C351.448 38.8395 362.02 34.2432 381.353 34.2432C393.734 34.2432 402.439 36.4839 407.437 40.9366C412.436 45.3893 414.935 52.4274 414.935 62.0223V132.95H396.952V62.999C396.952 60.471 396.751 58.4027 396.349 56.7939C395.946 55.1852 395.142 53.6052 393.964 51.9965C391.293 48.6642 385.375 46.998 376.182 46.998C369.115 46.998 363.686 47.4864 359.894 48.4918C356.102 49.4973 353.43 51.1347 351.908 53.3754C350.385 55.6449 349.61 58.8336 349.61 62.9703V132.892H331.626V36.2541H331.598Z" fill="white"/>
<path d="M426.483 120.741L480.835 48.4059H428.494V36.2256H501.231V48.4059L446.88 120.741H502.409V132.921H426.483V120.741Z" fill="white"/>
<path d="M548.86 134.329L511.486 36.2256H531.078L558.053 115.139H558.455L582.816 36.2256H601L552.451 174.489H533.664L548.86 134.329Z" fill="white"/>
</g>
<defs>
<clipPath id="clip0_687_4">
<rect width="601" height="179.085" fill="white"/>
</clipPath>
</defs>
</svg>
