<svg width="1728" height="1117" viewBox="0 0 1728 1117" fill="none" xmlns="http://www.w3.org/2000/svg">
<path d="M1 1117L1.00005 3.02394e-05" stroke="white" stroke-width="2"/>
<line x1="107.938" y1="1117" x2="107.938" y2="-3.0599e-08" stroke="white" stroke-width="2"/>
<line x1="215.875" y1="1117" x2="215.875" y2="-3.0599e-08" stroke="white" stroke-width="2"/>
<line x1="323.812" y1="1117" x2="323.813" y2="-3.0599e-08" stroke="white" stroke-width="2"/>
<line x1="431.75" y1="1117" x2="431.75" y2="-3.0599e-08" stroke="white" stroke-width="2"/>
<line x1="539.688" y1="1117" x2="539.688" y2="-3.0599e-08" stroke="white" stroke-width="2"/>
<line x1="647.625" y1="1117" x2="647.625" y2="-3.0599e-08" stroke="white" stroke-width="2"/>
<line x1="755.562" y1="1117" x2="755.563" y2="-3.0599e-08" stroke="white" stroke-width="2"/>
<line x1="863.5" y1="1117" x2="863.5" y2="-3.0599e-08" stroke="white" stroke-width="2"/>
<line x1="971.438" y1="1117" x2="971.438" y2="-3.0599e-08" stroke="white" stroke-width="2"/>
<line x1="1079.38" y1="1117" x2="1079.38" y2="-3.0599e-08" stroke="white" stroke-width="2"/>
<line x1="1187.31" y1="1117" x2="1187.31" y2="-3.0599e-08" stroke="white" stroke-width="2"/>
<line x1="1295.25" y1="1117" x2="1295.25" y2="-3.0599e-08" stroke="white" stroke-width="2"/>
<line x1="1403.19" y1="1117" x2="1403.19" y2="-3.0599e-08" stroke="white" stroke-width="2"/>
<line x1="1511.12" y1="1117" x2="1511.13" y2="-3.0831e-08" stroke="white" stroke-width="2"/>
<line x1="1619.06" y1="1117" x2="1619.06" y2="-3.23989e-08" stroke="white" stroke-width="2"/>
<line x1="1727" y1="1117" x2="1727" y2="-3.23989e-08" stroke="white" stroke-width="2"/>
<line x1="1728" y1="1009" x2="-4.73367e-08" y2="1009" stroke="white" stroke-width="2"/>
<line x1="1728" y1="897" x2="-4.73367e-08" y2="897" stroke="white" stroke-width="2"/>
<line x1="1728" y1="785" x2="-4.73367e-08" y2="785" stroke="white" stroke-width="2"/>
<line x1="1728" y1="673" x2="-4.73367e-08" y2="673" stroke="white" stroke-width="2"/>
<line x1="1728" y1="561" x2="-4.73367e-08" y2="561" stroke="white" stroke-width="2"/>
<line x1="1728" y1="449" x2="-4.73367e-08" y2="449" stroke="white" stroke-width="2"/>
<line x1="1728" y1="337" x2="-4.73367e-08" y2="337" stroke="white" stroke-width="2"/>
<line x1="1728" y1="225" x2="-4.73367e-08" y2="225" stroke="white" stroke-width="2"/>
<line x1="1728" y1="113" x2="-4.73367e-08" y2="113" stroke="white" stroke-width="2"/>
<line x1="1728" y1="1" x2="-4.73367e-08" y2="0.99993" stroke="white" stroke-width="2"/>
</svg>
