<svg width="1728" height="1117" viewBox="0 0 1728 1117" fill="none" xmlns="http://www.w3.org/2000/svg">
<path d="M0 1117L4.62866e-05 3.02394e-05" stroke="#4A4A4A" stroke-width="2"/>
<line x1="85.4" y1="1117" x2="85.4001" y2="-2.97489e-08" stroke="#4A4A4A" stroke-width="2"/>
<line x1="171.8" y1="1117" x2="171.8" y2="-2.97489e-08" stroke="#4A4A4A" stroke-width="2"/>
<line x1="258.2" y1="1117" x2="258.2" y2="-2.97489e-08" stroke="#4A4A4A" stroke-width="2"/>
<line x1="344.6" y1="1117" x2="344.6" y2="-2.97489e-08" stroke="#4A4A4A" stroke-width="2"/>
<line x1="431" y1="1117" x2="431" y2="-2.97489e-08" stroke="#4A4A4A" stroke-width="2"/>
<line x1="517.4" y1="1117" x2="517.4" y2="-2.97489e-08" stroke="#4A4A4A" stroke-width="2"/>
<line x1="603.8" y1="1117" x2="603.8" y2="-2.97489e-08" stroke="#4A4A4A" stroke-width="2"/>
<line x1="690.2" y1="1117" x2="690.2" y2="-2.97489e-08" stroke="#4A4A4A" stroke-width="2"/>
<line x1="776.6" y1="1117" x2="776.6" y2="-2.97489e-08" stroke="#4A4A4A" stroke-width="2"/>
<line x1="863" y1="1117" x2="863" y2="-2.97489e-08" stroke="#4A4A4A" stroke-width="2"/>
<line x1="949.4" y1="1117" x2="949.4" y2="-2.97489e-08" stroke="#4A4A4A" stroke-width="2"/>
<line x1="1035.8" y1="1117" x2="1035.8" y2="-2.97489e-08" stroke="#4A4A4A" stroke-width="2"/>
<line x1="1122.2" y1="1117" x2="1122.2" y2="-2.97489e-08" stroke="#4A4A4A" stroke-width="2"/>
<line x1="1208.6" y1="1117" x2="1208.6" y2="-2.99744e-08" stroke="#4A4A4A" stroke-width="2"/>
<line x1="1295" y1="1117" x2="1295" y2="-3.1499e-08" stroke="#4A4A4A" stroke-width="2"/>
<line x1="1381.4" y1="1117" x2="1381.4" y2="-3.1499e-08" stroke="#4A4A4A" stroke-width="2"/>
<line x1="1467.8" y1="1117" x2="1467.8" y2="-3.1499e-08" stroke="#4A4A4A" stroke-width="2"/>
<line x1="1554.2" y1="1117" x2="1554.2" y2="-3.1499e-08" stroke="#4A4A4A" stroke-width="2"/>
<line x1="1640.6" y1="1117" x2="1640.6" y2="-3.1499e-08" stroke="#4A4A4A" stroke-width="2"/>
<line x1="1727" y1="1117" x2="1727" y2="-3.1499e-08" stroke="#4A4A4A" stroke-width="2"/>
<path d="M1728 1117L2.32559e-05 1117" stroke="#4A4A4A" stroke-width="2"/>
<line x1="1728" y1="1038.21" x2="-6.04771e-08" y2="1038.21" stroke="#4A4A4A" stroke-width="2"/>
<line x1="1728" y1="958.429" x2="-6.04771e-08" y2="958.429" stroke="#4A4A4A" stroke-width="2"/>
<line x1="1728" y1="878.643" x2="-6.04771e-08" y2="878.643" stroke="#4A4A4A" stroke-width="2"/>
<line x1="1728" y1="798.857" x2="-6.04771e-08" y2="798.857" stroke="#4A4A4A" stroke-width="2"/>
<line x1="1728" y1="719.071" x2="-6.04771e-08" y2="719.071" stroke="#4A4A4A" stroke-width="2"/>
<line x1="1728" y1="639.286" x2="-6.04771e-08" y2="639.286" stroke="#4A4A4A" stroke-width="2"/>
<line x1="1728" y1="559.5" x2="-6.04771e-08" y2="559.5" stroke="#4A4A4A" stroke-width="2"/>
<line x1="1728" y1="479.714" x2="-6.04771e-08" y2="479.714" stroke="#4A4A4A" stroke-width="2"/>
<line x1="1728" y1="399.929" x2="-6.04771e-08" y2="399.929" stroke="#4A4A4A" stroke-width="2"/>
<line x1="1728" y1="320.143" x2="-6.04771e-08" y2="320.143" stroke="#4A4A4A" stroke-width="2"/>
<line x1="1728" y1="240.357" x2="-6.04771e-08" y2="240.357" stroke="#4A4A4A" stroke-width="2"/>
<line x1="1728" y1="160.571" x2="-6.04771e-08" y2="160.571" stroke="#4A4A4A" stroke-width="2"/>
<line x1="1728" y1="80.7861" x2="-6.04771e-08" y2="80.7861" stroke="#4A4A4A" stroke-width="2"/>
<line x1="1728" y1="1" x2="-6.03152e-08" y2="0.999945" stroke="#4A4A4A" stroke-width="2"/>
</svg>
