<svg width="1728" height="1117" viewBox="0 0 1728 1117" fill="none" xmlns="http://www.w3.org/2000/svg">
<path d="M1729 1117L1.00002 1117" stroke="white" stroke-width="2"/>
<line x1="1729" y1="1055.94" x2="1" y2="1055.94" stroke="white" stroke-width="2"/>
<line x1="1729" y1="993.889" x2="1" y2="993.889" stroke="white" stroke-width="2"/>
<line x1="1729" y1="931.833" x2="1" y2="931.833" stroke="white" stroke-width="2"/>
<line x1="1729" y1="869.777" x2="1" y2="869.777" stroke="white" stroke-width="2"/>
<line x1="1729" y1="807.723" x2="1" y2="807.723" stroke="white" stroke-width="2"/>
<line x1="1729" y1="745.667" x2="1" y2="745.667" stroke="white" stroke-width="2"/>
<line x1="1729" y1="683.611" x2="1" y2="683.611" stroke="white" stroke-width="2"/>
<line x1="1729" y1="621.556" x2="1" y2="621.556" stroke="white" stroke-width="2"/>
<line x1="1729" y1="559.5" x2="1" y2="559.5" stroke="white" stroke-width="2"/>
<line x1="1729" y1="497.444" x2="1" y2="497.444" stroke="white" stroke-width="2"/>
<line x1="1729" y1="435.389" x2="1" y2="435.389" stroke="white" stroke-width="2"/>
<line x1="1729" y1="373.333" x2="1" y2="373.333" stroke="white" stroke-width="2"/>
<line x1="1729" y1="311.277" x2="1" y2="311.277" stroke="white" stroke-width="2"/>
<line x1="1729" y1="249.223" x2="1" y2="249.223" stroke="white" stroke-width="2"/>
<line x1="1729" y1="187.167" x2="1" y2="187.167" stroke="white" stroke-width="2"/>
<line x1="1729" y1="125.111" x2="1" y2="125.111" stroke="white" stroke-width="2"/>
<line x1="1729" y1="63.0557" x2="1" y2="63.0556" stroke="white" stroke-width="2"/>
<line x1="1729" y1="1" x2="1" y2="0.999968" stroke="white" stroke-width="2"/>
<path d="M1 1117L1.00005 3.02394e-05" stroke="white" stroke-width="2"/>
<line x1="72" y1="1117" x2="72.0001" y2="-3.59992e-08" stroke="white" stroke-width="2"/>
<line x1="144" y1="1117" x2="144" y2="-3.58737e-08" stroke="white" stroke-width="2"/>
<line x1="216" y1="1117" x2="216" y2="-3.57491e-08" stroke="white" stroke-width="2"/>
<line x1="288" y1="1117" x2="288" y2="-3.57491e-08" stroke="white" stroke-width="2"/>
<line x1="360" y1="1117" x2="360" y2="-3.57491e-08" stroke="white" stroke-width="2"/>
<line x1="432" y1="1117" x2="432" y2="-3.57491e-08" stroke="white" stroke-width="2"/>
<line x1="504" y1="1117" x2="504" y2="-3.57491e-08" stroke="white" stroke-width="2"/>
<line x1="576" y1="1117" x2="576" y2="-3.57491e-08" stroke="white" stroke-width="2"/>
<line x1="648" y1="1117" x2="648" y2="-3.57491e-08" stroke="white" stroke-width="2"/>
<line x1="720" y1="1117" x2="720" y2="-3.57491e-08" stroke="white" stroke-width="2"/>
<line x1="792" y1="1117" x2="792" y2="-3.57491e-08" stroke="white" stroke-width="2"/>
<line x1="864" y1="1117" x2="864" y2="-3.57491e-08" stroke="white" stroke-width="2"/>
<line x1="936" y1="1117" x2="936" y2="-3.57491e-08" stroke="white" stroke-width="2"/>
<line x1="1008" y1="1117" x2="1008" y2="-3.60201e-08" stroke="white" stroke-width="2"/>
<line x1="1080" y1="1117" x2="1080" y2="-3.7852e-08" stroke="white" stroke-width="2"/>
<line x1="1152" y1="1117" x2="1152" y2="-3.7852e-08" stroke="white" stroke-width="2"/>
<line x1="1224" y1="1117" x2="1224" y2="-3.7852e-08" stroke="white" stroke-width="2"/>
<line x1="1296" y1="1117" x2="1296" y2="-3.7852e-08" stroke="white" stroke-width="2"/>
<line x1="1368" y1="1117" x2="1368" y2="-3.7852e-08" stroke="white" stroke-width="2"/>
<line x1="1440" y1="1117" x2="1440" y2="-3.7852e-08" stroke="white" stroke-width="2"/>
<line x1="1512" y1="1117" x2="1512" y2="-3.7852e-08" stroke="white" stroke-width="2"/>
<line x1="1584" y1="1117" x2="1584" y2="-3.7852e-08" stroke="white" stroke-width="2"/>
<line x1="1656" y1="1117" x2="1656" y2="-3.7852e-08" stroke="white" stroke-width="2"/>
<line x1="1728" y1="1117" x2="1728" y2="-3.7852e-08" stroke="white" stroke-width="2"/>
</svg>
