<svg width="1728" height="1117" viewBox="0 0 1728 1117" fill="none" xmlns="http://www.w3.org/2000/svg">
<path d="M1728 1117L2.32559e-05 1117" stroke="#4A4A4A" stroke-width="2"/>
<line x1="1728" y1="1055.94" x2="-7.68564e-08" y2="1055.94" stroke="#4A4A4A" stroke-width="2"/>
<line x1="1728" y1="993.889" x2="-7.68564e-08" y2="993.889" stroke="#4A4A4A" stroke-width="2"/>
<line x1="1728" y1="931.833" x2="-7.7089e-08" y2="931.833" stroke="#4A4A4A" stroke-width="2"/>
<line x1="1728" y1="869.777" x2="-7.72056e-08" y2="869.777" stroke="#4A4A4A" stroke-width="2"/>
<line x1="1728" y1="807.723" x2="-7.68564e-08" y2="807.723" stroke="#4A4A4A" stroke-width="2"/>
<line x1="1728" y1="745.667" x2="-7.68564e-08" y2="745.667" stroke="#4A4A4A" stroke-width="2"/>
<line x1="1728" y1="683.611" x2="-7.68564e-08" y2="683.611" stroke="#4A4A4A" stroke-width="2"/>
<line x1="1728" y1="621.556" x2="-7.68564e-08" y2="621.556" stroke="#4A4A4A" stroke-width="2"/>
<line x1="1728" y1="559.5" x2="-7.68564e-08" y2="559.5" stroke="#4A4A4A" stroke-width="2"/>
<line x1="1728" y1="497.444" x2="-7.68564e-08" y2="497.444" stroke="#4A4A4A" stroke-width="2"/>
<line x1="1728" y1="435.389" x2="-7.68564e-08" y2="435.389" stroke="#4A4A4A" stroke-width="2"/>
<line x1="1728" y1="373.333" x2="-7.68564e-08" y2="373.333" stroke="#4A4A4A" stroke-width="2"/>
<line x1="1728" y1="311.277" x2="-7.68564e-08" y2="311.277" stroke="#4A4A4A" stroke-width="2"/>
<line x1="1728" y1="249.223" x2="-9.98884e-08" y2="249.223" stroke="#4A4A4A" stroke-width="2"/>
<line x1="1728" y1="187.167" x2="-9.98884e-08" y2="187.167" stroke="#4A4A4A" stroke-width="2"/>
<line x1="1728" y1="125.111" x2="-9.98884e-08" y2="125.111" stroke="#4A4A4A" stroke-width="2"/>
<line x1="1728" y1="63.0557" x2="-9.98884e-08" y2="63.0556" stroke="#4A4A4A" stroke-width="2"/>
<line x1="1728" y1="1" x2="-1.01617e-07" y2="0.999968" stroke="#4A4A4A" stroke-width="2"/>
<path d="M0 1117L4.62866e-05 3.02394e-05" stroke="#4A4A4A" stroke-width="2"/>
<line x1="71" y1="1117" x2="71.0001" y2="-3.59992e-08" stroke="#4A4A4A" stroke-width="2"/>
<line x1="143" y1="1117" x2="143" y2="-3.58737e-08" stroke="#4A4A4A" stroke-width="2"/>
<line x1="215" y1="1117" x2="215" y2="-3.57491e-08" stroke="#4A4A4A" stroke-width="2"/>
<line x1="287" y1="1117" x2="287" y2="-3.57491e-08" stroke="#4A4A4A" stroke-width="2"/>
<line x1="359" y1="1117" x2="359" y2="-3.57491e-08" stroke="#4A4A4A" stroke-width="2"/>
<line x1="431" y1="1117" x2="431" y2="-3.57491e-08" stroke="#4A4A4A" stroke-width="2"/>
<line x1="503" y1="1117" x2="503" y2="-3.57491e-08" stroke="#4A4A4A" stroke-width="2"/>
<line x1="575" y1="1117" x2="575" y2="-3.57491e-08" stroke="#4A4A4A" stroke-width="2"/>
<line x1="647" y1="1117" x2="647" y2="-3.57491e-08" stroke="#4A4A4A" stroke-width="2"/>
<line x1="719" y1="1117" x2="719" y2="-3.57491e-08" stroke="#4A4A4A" stroke-width="2"/>
<line x1="791" y1="1117" x2="791" y2="-3.57491e-08" stroke="#4A4A4A" stroke-width="2"/>
<line x1="863" y1="1117" x2="863" y2="-3.57491e-08" stroke="#4A4A4A" stroke-width="2"/>
<line x1="935" y1="1117" x2="935" y2="-3.57491e-08" stroke="#4A4A4A" stroke-width="2"/>
<line x1="1007" y1="1117" x2="1007" y2="-3.60201e-08" stroke="#4A4A4A" stroke-width="2"/>
<line x1="1079" y1="1117" x2="1079" y2="-3.7852e-08" stroke="#4A4A4A" stroke-width="2"/>
<line x1="1151" y1="1117" x2="1151" y2="-3.7852e-08" stroke="#4A4A4A" stroke-width="2"/>
<line x1="1223" y1="1117" x2="1223" y2="-3.7852e-08" stroke="#4A4A4A" stroke-width="2"/>
<line x1="1295" y1="1117" x2="1295" y2="-3.7852e-08" stroke="#4A4A4A" stroke-width="2"/>
<line x1="1367" y1="1117" x2="1367" y2="-3.7852e-08" stroke="#4A4A4A" stroke-width="2"/>
<line x1="1439" y1="1117" x2="1439" y2="-3.7852e-08" stroke="#4A4A4A" stroke-width="2"/>
<line x1="1511" y1="1117" x2="1511" y2="-3.7852e-08" stroke="#4A4A4A" stroke-width="2"/>
<line x1="1583" y1="1117" x2="1583" y2="-3.7852e-08" stroke="#4A4A4A" stroke-width="2"/>
<line x1="1655" y1="1117" x2="1655" y2="-3.7852e-08" stroke="#4A4A4A" stroke-width="2"/>
<line x1="1727" y1="1117" x2="1727" y2="-3.7852e-08" stroke="#4A4A4A" stroke-width="2"/>
</svg>
