<svg width="847" height="544" viewBox="0 0 847 544" fill="none" xmlns="http://www.w3.org/2000/svg">
<path d="M821.013 132.229L820.721 132.035V132.326L821.013 132.229ZM818.101 129.608L818.78 129.317V128.929L818.101 129.608ZM830.136 122.037L830.039 120.679L829.845 119.902L830.136 122.037ZM787.72 112.04L787.04 112.331L781.508 113.981L779.567 114.661L777.334 115.34L776.558 115.631V115.923L776.849 120.97L777.14 125.629L777.431 129.9L777.917 130.191L779.664 129.705L787.526 127.376L787.72 127.861L801.697 122.523L801.794 122.717L803.056 122.232L807.521 120.484L811.792 125.629L812.374 125.144L812.665 123.688L812.568 126.017H813.539L813.83 127.182L814.703 128.832L819.265 123.299L823.051 124.561L823.924 122.62L830.136 119.32L827.516 114.175L828.195 117.476L824.992 119.902L821.401 120.193L814.218 112.525L811.015 107.672L814.218 104.275L810.918 104.081L809.559 100.878L809.462 100.684L803.929 106.701L791.699 110.778L787.72 112.04Z" fill="#F9F9F9" stroke="black" stroke-width="0.970631" stroke-linejoin="round"/>
<path d="M423.248 53.0259L425.189 59.9174L429.266 84.7655L431.207 94.666L431.789 103.402L434.022 108.643L434.507 113.108L434.895 114.564L434.798 114.855L430.916 121.261L433.439 125.532L438.292 159.698L438.487 164.163L443.34 163.872L462.461 162.804L510.216 158.825L514.972 158.339V157.854L513.613 150.38L507.693 147.371L503.033 142.518L495.657 138.053L493.327 137.859L489.736 135.141L490.706 121.747L487.309 118.641L488.474 113.205L494.686 107.575L493.618 95.9278L495.851 93.4042L503.422 85.445L512.06 74.3798L515.36 72.0503L521.184 69.2354L527.299 64.6735L523.223 65.45L520.796 63.6058L511.478 64.8676L510.022 63.1205L501.675 66.5177L494.977 63.7028L493.133 61.4704L487.795 61.8586L484.203 60.0144L485.368 58.6556L480.806 57.1996H476.729L470.226 60.0144L468.964 58.0732L458.676 56.6172L455.181 47.8815L454.793 45.2608L450.328 43.999L450.716 51.4729L438.875 52.3465L424.218 52.9288L423.248 53.0259Z" fill="#F9F9F9" stroke="black" stroke-width="0.970631" stroke-linejoin="round"/>
<path d="M330.358 52.1526L298.23 50.0172L274.838 47.7848L251.543 45.067L237.081 43.1257L213.98 39.5344L202.429 37.5931L176.61 32.6429L173.892 32.0605L169.719 51.8614L171.563 55.4528L173.019 60.9854L172.145 61.7619L173.99 66.8091L176.513 68.9445L183.696 80.9804L184.375 83.0187L187.287 82.8246L183.89 98.7429L182.531 99.1312L180.687 104.47L190.296 105.149L191.073 109.614L196.508 122.912L197.479 123.688L201.264 131.453L202.235 130.677L210.291 130.58L220.483 131.647L223.006 128.347L226.015 133.783L226.598 134.074L226.695 133.491L228.054 123.979L261.249 128.056L287.748 130.58L301.725 131.744L326.67 133.2L327.932 133.297H328.223L328.32 131.939L328.611 125.241L328.999 116.408L329.096 114.176L329.291 110.293L330.844 79.8156L332.105 56.1322L332.203 52.2497L330.358 52.1526Z" fill="#F9F9F9" stroke="black" stroke-width="0.970631" stroke-linejoin="round"/>
<path d="M421.209 53.0265L391.896 53.6089L371.416 53.5118L353.847 53.1236L333.27 52.3471L332.202 52.25L332.105 56.1325L330.843 79.8159L329.29 110.294L329.096 114.176L332.882 114.37L375.686 115.535L415.191 115.244L431.595 114.759L434.895 114.565L434.507 113.109L434.021 108.644L431.789 103.402L431.207 94.6666L429.265 84.7662L425.189 59.918L423.247 53.0265L421.209 53.0265Z" fill="#F9F9F9" stroke="black" stroke-width="0.970631" stroke-linejoin="round"/>
<path d="M173.795 32.0605L165.157 30.3134L162.342 29.634L161.08 29.3428L149.821 80.0097L150.306 84.1834L149.918 88.5513L150.112 89.5219V89.619L150.209 91.4632L153.509 95.0545L148.753 106.993L138.659 120.194L138.367 122.62L140.988 128.833L131.767 167.075L131.379 169.114L134.097 169.696L161.566 175.132L172.534 177.17L175.348 177.655L178.066 178.141L192.043 180.373L217.086 184.158L219.9 184.547L220.289 181.344L221.162 175.035L224.462 149.798L226.21 137.277L226.598 134.074L226.015 133.783L223.006 128.347L220.483 131.647L210.291 130.58L202.235 130.677L201.264 131.453L197.479 123.688L196.508 122.912L191.073 109.614L190.296 105.149L180.687 104.47L182.531 99.1312L183.89 98.743L187.287 82.8246L184.375 83.0187L183.696 80.9804L176.513 68.9446L173.99 66.8092L172.145 61.7619L173.019 60.9854L171.563 55.4528L169.719 51.8615L173.893 32.0606L173.795 32.0605Z" fill="#F9F9F9" stroke="black" stroke-width="0.970631" stroke-linejoin="round"/>
<path d="M56.8343 56.2292L56.9314 54.5791L56.7373 54.6762L56.8343 56.2292ZM77.5088 47.3965L78.0911 46.4258L77.4117 46.3288L77.5088 47.3965ZM75.6646 45.6493L76.2469 43.7081L75.6646 43.5139V45.6493ZM82.7502 42.8345L82.6531 40.8932L81.003 43.4169L82.7502 42.8345ZM82.9443 38.7579L83.2355 36.8166L83.0414 36.3313L82.9443 38.7579ZM83.2355 29.2457L83.1384 28.178L82.7501 28.0809L83.2355 29.2457ZM86.3415 22.8395L85.4679 22.7424L83.7208 25.4602L86.3415 22.8395ZM83.9149 20.2188L84.4003 19.8305L84.4974 19.5394L83.9149 20.2188ZM83.4296 20.51L83.1384 18.5687L82.2649 20.2188L83.4296 20.51ZM82.9443 17.7922L82.0707 17.404L82.7502 18.3746L82.9443 17.7922ZM85.8562 19.4423V18.1805L85.565 18.6658L85.8562 19.4423ZM86.7298 18.1805L86.3415 17.8893H86.2444L86.7298 18.1805ZM81.1972 16.0451L80.7119 15.6568L80.5177 15.5598L81.1972 16.0451ZM84.7885 15.6568L82.1678 16.3363L82.8472 16.5304L84.7885 15.6568ZM82.6531 15.4627L82.1678 14.8803L82.0707 14.9774L82.6531 15.4627ZM84.6915 14.2979H84.3032L84.7885 14.4921L84.6915 14.2979ZM65.6671 64.0913L69.1613 67.8768L68.579 75.1565L69.2584 77.0007L74.4998 79.8156L89.2534 81.1744L89.8358 82.9216L96.8243 83.0187L103.425 83.8922L114.199 82.7275L119.537 83.6011L120.993 82.9216L148.268 89.1337L150.112 89.5219L149.918 88.5513L150.306 84.1834L149.821 80.0097L161.08 29.3428L159.527 29.0516L136.814 23.7131L117.013 18.6658L94.5919 12.4538L87.8945 10.8037L89.4475 19.2482L87.9916 21.966L85.3709 20.6071L87.8945 32.3517L85.1768 36.2342L83.9149 39.8256V43.514L78.1882 47.4936L75.7616 45.9406L73.4321 47.1053L77.7029 41.5727L76.6352 45.3582L79.0618 42.7375L81.0031 43.1257L80.4207 38.2726L81.6825 38.4667L84.3032 32.6429L83.4296 31.7693L80.0324 36.1372L77.8 36.2342L80.2265 33.5165L82.9443 32.837L81.9737 27.8868L79.2559 27.2074L77.897 24.8779L76.2469 25.7514L67.3171 21.8689L59.455 15.7539L57.3196 21.6748L57.1255 24.1984L58.7756 28.6633L57.7079 43.1257L56.9314 45.3582L61.2992 45.7464L56.9314 48.8525L59.2609 50.0172L57.4167 56.2292L56.5431 51.3761L54.8931 57.0058L57.1255 59.7235L59.5521 59.5294L62.464 61.2765L63.9199 64.0914L65.6671 64.0913Z" fill="#F9F9F9" stroke="black" stroke-width="0.970631" stroke-linejoin="round"/>
<path d="M236.886 289.083L204.176 285.007L186.608 282.483L161.565 278.504L159.042 278.115V278.309L154.771 297.14L152.538 297.043L149.141 294.034L144.87 297.625L144.773 313.058L143.22 316.358V316.649V316.746L143.026 319.173L146.423 328.297L149.432 332.374L143.997 335.577L141.861 339.556L138.367 348.098L136.62 348.486L136.523 355.572L139.532 357.804L137.979 362.075L134.485 362.269L132.446 366.054L139.435 370.422L152.635 377.799L193.402 399.444L227.956 403.715H228.345L231.062 375.081L231.742 367.996L239.022 292.869L239.41 289.375L236.886 289.083Z" fill="#F9F9F9" stroke="black" stroke-width="0.970631" stroke-linejoin="round"/>
<path d="M70.7142 342.953L71.1025 345.089V345.477L70.7142 342.953ZM56.446 334.606L57.1254 336.062L57.5136 335.965L56.446 334.606ZM73.432 334.315L73.7232 336.838L75.4703 338.1L73.432 334.315ZM61.6874 320.532L60.6197 320.241L61.4932 320.629L61.6874 320.532ZM50.9134 317.62L48.2926 319.173L48.9721 319.852L50.9134 317.62ZM45.8661 315.776L45.6719 316.552L46.5455 316.746L45.8661 315.776ZM54.4076 317.717L58.6784 320.143L59.4549 319.464L54.4076 317.717ZM31.6949 232.69L31.5977 232.398V232.787L31.6949 232.69ZM87.7003 159.019L83.9148 158.048L42.3718 146.595L26.9388 141.936V142.324L26.0652 151.933L21.9885 163.289L15.1941 171.734L15 176.005L18.3001 181.926L19.9502 189.691L17.6207 196L18.009 202.309L16.8442 204.93L20.8238 213.568L23.3474 216.868L23.1533 226.283L29.1712 232.01L32.6655 226.186L36.451 229.195L37.9069 227.836L32.6655 228.807L32.5684 233.757L33.6361 239.969L30.7242 237.154L29.0741 233.369L28.5888 238.61L29.9477 248.996L35.3832 255.694L31.7919 260.353L32.3743 266.273L36.2568 272.291L43.0512 290.927L45.1866 292.092L44.5071 305.002L45.5748 306.555L60.1343 311.796L64.5992 316.552L66.1522 319.658L70.423 322.085L75.082 322.958L77.0233 328.297L80.9058 330.141L86.7296 337.032L92.1651 346.059L91.7769 354.407L94.7858 358.386L134.485 362.269L137.979 362.075L139.532 357.804L136.523 355.571L136.62 348.486L138.367 348.098L141.861 339.556L143.997 335.576L149.432 332.373L146.423 328.297L143.026 319.173L143.22 316.746V316.649L140.697 313.252L132.932 302.866L117.887 281.706L96.9213 251.617L85.0796 235.213L73.6261 218.712L86.8267 162.707L87.7003 159.019Z" fill="#F9F9F9"/>
<path d="M21.3091 232.204L21.212 232.301M70.7142 342.953L71.1025 345.089V345.477L70.7142 342.953ZM56.446 334.606L57.1254 336.062L57.5136 335.965L56.446 334.606ZM73.432 334.315L73.7232 336.838L75.4703 338.1L73.432 334.315ZM61.6874 320.532L60.6197 320.241L61.4932 320.629L61.6874 320.532ZM50.9134 317.62L48.2926 319.173L48.9721 319.852L50.9134 317.62ZM45.8661 315.776L45.6719 316.552L46.5455 316.746L45.8661 315.776ZM54.4076 317.717L58.6784 320.143L59.4549 319.464L54.4076 317.717ZM31.6949 232.69L31.5977 232.398V232.787L31.6949 232.69ZM87.7003 159.019L83.9148 158.048L42.3718 146.595L26.9388 141.936V142.324L26.0652 151.933L21.9885 163.289L15.1941 171.734L15 176.005L18.3001 181.926L19.9502 189.691L17.6207 196L18.009 202.309L16.8442 204.93L20.8238 213.568L23.3474 216.868L23.1533 226.283L29.1712 232.01L32.6655 226.186L36.451 229.195L37.9069 227.836L32.6655 228.807L32.5684 233.757L33.6361 239.969L30.7242 237.154L29.0741 233.369L28.5888 238.61L29.9477 248.996L35.3832 255.694L31.7919 260.353L32.3743 266.273L36.2568 272.291L43.0512 290.927L45.1866 292.092L44.5071 305.002L45.5748 306.555L60.1343 311.796L64.5992 316.552L66.1522 319.658L70.423 322.085L75.082 322.958L77.0233 328.297L80.9058 330.141L86.7296 337.032L92.1651 346.059L91.7769 354.407L94.7858 358.386L134.485 362.269L137.979 362.075L139.532 357.804L136.523 355.571L136.62 348.486L138.367 348.098L141.861 339.556L143.997 335.576L149.432 332.373L146.423 328.297L143.026 319.173L143.22 316.746V316.649L140.697 313.252L132.932 302.866L117.887 281.706L96.9213 251.617L85.0796 235.213L73.6261 218.712L86.8267 162.707L87.7003 159.019Z" stroke="black" stroke-width="0.970631" stroke-linejoin="round"/>
<path d="M354.333 234.728L354.721 215.704L350.062 215.51L326.379 214.636L324.049 214.539L322.108 214.442L293.28 212.598L274.062 211.045L250.087 208.715L247.758 208.424L247.466 210.947L242.225 261.517L240.381 279.183L239.604 286.851L239.41 289.374L242.419 289.666L291.339 293.936L312.887 295.295L334.338 296.266L337.444 296.363L339.385 296.46L343.462 296.557L345.403 296.654L351.518 296.848H353.071V294.907L354.139 243.561L354.236 237.834V235.99L354.333 234.728Z" fill="#F9F9F9" stroke="black" stroke-width="0.970631" stroke-linejoin="round"/>
<path d="M159.527 275.01L169.621 212.21L174.766 180.762L175.348 177.656L172.533 177.17L161.565 175.132L134.096 169.696L131.379 169.114L128.661 168.532L114.975 165.523L90.4179 159.699L87.7001 159.02L86.8266 162.708L73.626 218.713L85.0794 235.214L96.9211 251.618L117.887 281.707L132.932 302.867L140.697 313.253L143.22 316.65V316.359L144.773 313.059L144.87 297.626L149.141 294.034L152.538 297.043L154.771 297.14L159.042 278.31V278.116L159.527 275.01Z" fill="#F9F9F9" stroke="black" stroke-width="0.970631" stroke-linejoin="round"/>
<path d="M337.152 303.935L337.249 301.411L337.347 298.887L337.444 296.364L334.338 296.266L312.887 295.296L291.339 293.937L242.419 289.666L239.41 289.375L239.022 292.869L231.742 367.996L231.062 375.082L228.345 403.715L228.733 403.812L242.128 405.074L243.39 398.28L245.816 396.339L272.994 398.765H273.188L270.761 394.009L283.088 394.883L313.857 396.63L333.076 397.503L336.376 306.458L337.055 306.555L337.152 303.935Z" fill="#F9F9F9" stroke="black" stroke-width="0.970631" stroke-linejoin="round"/>
<path d="M26.9386 141.935L42.3716 146.594L83.9147 158.048L87.7001 159.019L90.4179 159.698L114.975 165.522L128.661 168.531L131.379 169.113L131.767 167.075L140.988 128.832L138.367 122.62L138.658 120.193L148.753 106.993L153.509 95.0539L150.209 91.4626L150.112 89.6184V89.5213L148.267 89.1331L120.993 82.921L119.537 83.6005L114.198 82.7269L103.424 83.8917L96.824 83.0181L89.8355 82.921L89.2531 81.1739L74.4995 79.815L69.2581 77.0001L68.5786 75.1559L69.161 67.8762L65.6667 64.0907L65.3756 64.1878L64.6961 64.6731L59.843 62.1495L56.9311 63.023L54.9898 62.0524L52.9515 70.3998L51.5926 72.7294L45.5747 87.3859L43.8275 95.4421L42.7599 95.5392L37.1302 108.934L33.3447 114.661L31.9859 115.631L28.4916 122.426L27.8121 129.608L25.6768 136.015L26.9386 141.838L26.9386 141.935ZM62.4637 62.2466L62.1725 61.373L62.0754 62.0525L62.4637 62.2466Z" fill="#F9F9F9" stroke="black" stroke-width="0.970631" stroke-linejoin="round"/>
<path d="M217.086 184.158L192.043 180.373L178.066 178.141L175.349 177.655L174.766 180.761L169.622 212.21L159.527 275.01L159.042 278.116L161.566 278.504L186.608 282.483L204.176 285.007L236.887 289.084L239.41 289.375L239.604 286.851L240.381 279.183L242.225 261.518L247.466 210.948L247.758 208.424L245.816 208.23L221.065 205.221L217.28 204.736L219.706 185.809L219.901 184.547L217.086 184.158Z" fill="#F9F9F9" stroke="black" stroke-width="0.970631" stroke-linejoin="round"/>
<path d="M326.087 171.345L326.864 156.204L327.834 135.82L327.931 133.297L326.669 133.2L301.724 131.744L287.747 130.579L261.249 128.055L228.053 123.979L226.694 133.491L226.597 134.073L226.209 137.276L224.462 149.797L221.162 175.034L220.288 181.343L219.9 184.546L219.706 185.808L217.279 204.735L221.065 205.22L245.816 208.229L247.757 208.423L250.087 208.715L274.061 211.044L293.28 212.597L322.107 214.441L324.049 214.538L324.146 212.015L324.631 201.823L325.505 184.061L325.893 176.49L325.99 173.966L326.087 171.345Z" fill="#F9F9F9" stroke="black" stroke-width="0.970631" stroke-linejoin="round"/>
<path d="M555.156 307.234L544.674 308.787L548.944 301.992L547.1 298.207L510.119 301.798L478.865 304.322L474.303 304.613L474.885 307.331L478.671 326.938L478.768 331.306L479.835 357.707L479.932 362.075L480.224 362.172L481.68 363.725L487.503 363.531L488.086 372.072L488.28 374.499L491.289 374.207L500.51 373.528L537.103 370.131H537.297L537.2 367.995L538.17 367.316L536.423 364.016L540.112 348.486L538.656 346.739L544.188 340.624L543.8 335.382L547.877 328.588V328.491L547.682 328.297L551.177 325.094L550.206 321.211L552.924 316.94L552.342 312.961L555.253 307.331V307.234L555.156 307.234Z" fill="#F9F9F9" stroke="black" stroke-width="0.970631" stroke-linejoin="round"/>
<path d="M526.232 176.879L520.893 174.064L517.981 170.084L517.011 164.358L517.787 161.737L514.972 158.34L510.216 158.825L462.461 162.805L443.34 163.872L438.487 164.164L436.448 164.261L438.098 175.035L436.739 180.179L438.875 183.382V184.062L439.554 184.159L442.66 193.283L445.669 198.039L445.863 203.474L449.164 208.036L448.581 209.978L451.59 222.207V222.499L471.488 221.916L492.745 220.072L513.613 217.451L518.37 221.625L518.564 221.819L519.437 221.431L518.758 217.645L522.349 215.413L523.805 205.513L522.349 204.833L523.223 199.786L527.591 198.912L532.444 195.418L534.579 189.303L534.676 186.197L530.794 182.509L529.629 180.179L525.94 177.85L526.135 177.364L526.232 176.879Z" fill="#F9F9F9" stroke="black" stroke-width="0.970631" stroke-linejoin="round"/>
<path d="M473.623 291.898L471.197 250.841L466.829 248.317L466.441 246.376L462.946 243.27L466.343 239.096L464.985 236.669L462.461 236.766L460.131 235.116L459.161 234.34L455.861 234.534L420.044 235.893L403.641 236.281H371.027L357.924 236.087L354.236 235.99V237.834L354.138 243.561L353.071 294.907V296.848L357.245 296.946L379.763 297.237L432.468 296.46L470.032 294.713L473.72 294.422L473.623 291.898Z" fill="#F9F9F9" stroke="black" stroke-width="0.970631" stroke-linejoin="round"/>
<path d="M518.37 221.625L513.614 217.451L492.745 220.072L471.488 221.916L451.59 222.498L451.493 223.081L453.92 227.74L456.152 229.293L458.773 233.952L459.161 234.34L460.132 235.117L462.461 236.767L464.985 236.67L466.344 239.096L462.947 243.27L466.441 246.376L466.829 248.317L471.197 250.841L473.624 291.899L473.721 294.422L473.915 296.946L474.012 299.469L474.206 302.09L474.303 304.614L478.865 304.323L510.119 301.799L547.1 298.208L548.945 301.993L544.674 308.788L555.157 307.235H555.254V306.458L555.448 301.993L557.389 299.567L556.807 296.849L556.71 296.752L556.613 296.655L557.001 295.393L557.583 295.587L557.874 296.363L557.777 296.655V296.752V297.528L558.166 297.625L558.942 296.655V296.558L559.039 296.266L561.563 294.713L561.951 294.519L562.825 286.56L562.63 286.172L562.339 286.075L555.448 280.445L556.516 278.407L554.574 272.874L551.08 270.156L544.48 267.244L540.306 263.847L540.791 256.859L542.053 250.355L535.065 250.744L532.929 248.511L531.959 244.046L520.893 234.728L517.787 226.09L518.564 221.819L518.37 221.625Z" fill="#F9F9F9" stroke="black" stroke-width="0.970631" stroke-linejoin="round"/>
<path d="M437.03 183.867L434.021 180.858L423.442 177.752L420.044 177.655L414.9 179.111L408.785 175.229L389.664 175.423L361.806 175.132L328.902 174.064L325.99 173.967L325.893 176.49L325.505 184.061L324.631 201.824L324.146 212.016L324.049 214.539L326.378 214.636L350.062 215.51L354.721 215.704L354.333 234.728L354.235 235.99L357.924 236.087L371.027 236.281H403.641L420.044 235.893L455.861 234.534L459.161 234.34L458.772 233.952L456.152 229.293L453.919 227.74L451.493 223.081L451.59 222.498V222.207L448.581 209.977L449.163 208.036L445.863 203.474L445.669 198.039L442.66 193.282L439.554 184.158L438.874 184.061L437.03 183.867Z" fill="#F9F9F9" stroke="black" stroke-width="0.970631" stroke-linejoin="round"/>
<path d="M474.206 302.09L474.012 299.469L473.915 296.946L473.721 294.422L470.032 294.713L432.469 296.46L379.764 297.237L357.245 296.946L353.071 296.848H351.518L345.403 296.654L343.462 296.557L339.385 296.46L337.444 296.363L337.347 298.887L337.25 301.41L337.153 303.934L337.056 306.555H337.638L361.127 307.137L385.975 307.428L386.267 340.624L388.014 346.448L391.896 350.136L396.07 350.33L396.944 348.583L402.67 353.824L410.144 354.601L411.503 356.154L414.221 354.892L421.015 358.095V359.939L423.539 359.842L426.16 357.61L431.013 360.716L435.575 362.366L438.681 358.095L448.581 362.754L452.27 359.745L455.279 358.58L457.705 359.163L466.829 356.542L471.682 358.58L476.05 361.395L479.835 362.075H479.933L479.835 357.707L478.768 331.306L478.671 326.938L474.885 307.331L474.303 304.613L474.206 302.09Z" fill="#F9F9F9" stroke="black" stroke-width="0.970631" stroke-linejoin="round"/>
<path d="M431.595 114.758L415.191 115.243L375.687 115.535L332.882 114.37L329.096 114.176L328.999 116.408L328.611 125.241L328.32 131.938L328.223 133.297H327.932L327.834 135.821L326.864 156.204L326.087 171.346L325.99 173.967L328.902 174.064L361.807 175.131L389.664 175.423L408.785 175.229L414.9 179.111L420.044 177.655L423.442 177.752L434.021 180.858L437.03 183.867L438.875 184.061V183.382L436.739 180.179L438.098 175.034L436.448 164.26L438.486 164.163L438.292 159.698L433.439 125.532L430.915 121.261L434.798 114.855L434.895 114.564L431.595 114.758Z" fill="#F9F9F9" stroke="black" stroke-width="0.970631" stroke-linejoin="round"/>
<path d="M553.7 448.461L552.439 448.752L551.856 449.334L553.7 448.461ZM557.777 448.461L557.098 448.17L556.903 448.461H557.777ZM560.107 447.684H559.427L559.039 448.17L560.107 447.684ZM558.942 447.005L558.748 446.714L558.651 447.005H558.942ZM566.707 441.861L566.416 442.055H566.901L566.707 441.861ZM580.296 436.134L580.878 435.357L580.199 436.231L580.296 436.134ZM582.237 433.61L582.043 433.707V433.804L582.237 433.61ZM532.346 442.152L533.802 440.308L529.823 439.24L528.076 440.696L532.346 442.152ZM572.628 433.707L572.239 433.319L572.142 433.513L572.628 433.707ZM573.695 431.96L572.725 431.669L573.016 432.64L573.695 431.96ZM581.654 430.31V430.019V430.116V430.31ZM583.596 429.048L583.499 428.951L583.596 429.145V429.048ZM582.819 428.854L582.625 428.757L582.528 429.048L582.819 428.854ZM576.025 428.563L576.898 428.272V427.98L576.025 428.563ZM576.51 428.078L576.995 427.592L576.898 427.495L576.51 428.078ZM573.113 424.486L572.919 424.68H573.016L573.113 424.486ZM537.297 370.131H537.103L500.51 373.528L491.289 374.208L488.28 374.499L488.377 376.828L490.318 395.561L493.521 400.026L493.618 402.647L496.724 408.083L499.248 416.042L498.374 420.507L497.695 431.572L496.239 435.163H496.433L496.724 437.687L495.074 440.016L507.11 438.657L516.525 441.278L523.223 442.152L526.62 439.725L524.776 437.299L530.988 435.357L530.794 437.493L533.997 436.716L536.617 440.793L538.85 440.016L544.674 443.996L541.082 445.258L549.333 447.684H552.439L554.283 445.452L558.262 443.316L561.077 447.393L563.018 443.705L562.436 437.881L567.677 439.919L568.26 441.666L574.472 442.443L577.578 444.967L577.19 447.005L581.558 442.928L579.907 440.793L572.628 438.949L569.91 437.396L569.813 434.484L572.822 434.872L575.151 430.116L572.142 425.942L570.492 429.922L566.707 429.242L569.328 424.972L567.58 424.486L563.31 427.495L557.195 427.883L555.448 426.525L558.262 421.574L561.562 421.477L567.192 423.321L571.269 423.71L569.036 420.895L564.766 412.547L565.93 407.888L532.444 411.577L533.705 410.315L532.346 406.821L534.385 403.812L535.55 396.241L542.926 383.623L539.335 379.255L539.529 376.052L537.297 370.81L537.297 370.131Z" fill="#F9F9F9" stroke="black" stroke-width="0.970631" stroke-linejoin="round"/>
<path d="M438.681 516.114L434.022 498.546V501.846L438.681 516.114ZM437.613 485.248L434.313 491.46L433.925 493.499L437.613 485.248ZM440.234 480.686L443.34 476.61L441.107 477.969L440.234 480.686ZM451.202 470.786L443.922 474.571L445.961 474.183L451.202 470.786ZM452.173 469.427L454.211 467.777L453.435 467.971L452.173 469.427ZM337.056 306.555L336.376 306.458L333.076 397.503L313.858 396.63L283.089 394.883L270.762 394.009L273.188 398.765L273.285 398.862L283.768 409.345L289.786 416.431L297.745 422.351L303.375 432.64L305.51 443.414L310.072 446.423L313.664 450.403L318.808 452.247L326.282 457.003L329.679 458.265L334.338 453.606L335.794 448.656L338.221 443.899L345.792 440.89L348.703 442.346L357.148 443.026L364.816 447.782L370.057 448.753L368.601 451.47L371.61 453.412L374.425 456.809L375.008 460.4L376.852 462.827L381.122 473.115L385.393 476.707L388.693 482.142L392.867 486.413L394.711 486.995L396.264 498.061L400.826 500.584L401.02 504.079L402.185 503.787L410.144 513.494L414.124 514.367L419.171 517.376H426.936L432.566 520.482L439.263 519.026L436.254 516.211L433.537 508.058L432.469 500.973L430.916 498.643L431.595 493.887L429.557 493.693L426.839 489.228L429.945 492.528L433.537 491.266L435.478 486.122L431.595 480.88L437.419 481.56L440.137 477.386L439.749 475.93L442.175 472.727L441.593 475.542L444.311 473.407L443.243 469.621L446.737 471.465L451.202 468.942L446.834 464.38L449.552 465.447L454.599 465.739L461.2 464.283L468.576 459.332L473.041 455.644L473.721 452.926L476.438 450.111L474.983 445.452L475.274 442.541L480.127 440.405L479.739 445.549H482.651L479.447 448.267L492.357 441.473L494.492 441.376L495.851 435.164H496.239L497.695 431.572L498.375 420.507L499.248 416.042L496.725 408.083L493.619 402.648L493.522 400.027L490.318 395.562L488.377 376.829L488.28 374.499L488.086 372.073L487.504 363.531L481.68 363.725L480.224 362.172L479.933 362.075H479.836L476.05 361.396L471.682 358.581L466.829 356.543L457.705 359.163L455.279 358.581L452.27 359.746L448.581 362.755L438.681 358.096L435.575 362.366L431.013 360.716L426.16 357.61L423.539 359.843L421.015 359.94V358.096L414.221 354.893L411.503 356.154L410.144 354.601L402.67 353.825L396.944 348.583L396.07 350.331L391.896 350.136L388.014 346.448L386.267 340.624L385.976 307.429L361.127 307.137L337.638 306.555L337.056 306.555Z" fill="#F9F9F9" stroke="black" stroke-width="0.970631" stroke-linejoin="round"/>
<path d="M801.696 122.523L787.719 127.862L787.525 127.377L779.663 129.706L777.916 130.191L778.11 131.162L781.799 145.43L782.963 146.886L780.44 149.992L782.187 151.642L787.816 146.207L790.825 142.033L791.408 143.198L805.579 136.889L805.87 136.598L805.773 134.268L805.191 132.23L802.182 123.785L801.794 122.718L801.696 122.523Z" fill="#F9F9F9" stroke="black" stroke-width="0.970631" stroke-linejoin="round"/>
<path d="M788.593 55.1621L787.331 56.7151L785.875 56.4239L785.099 62.8301V62.9272L787.428 71.6628L787.234 73.41L783.061 78.9426L784.128 83.9899V90.299L783.352 96.1227L787.72 112.041L791.699 110.779L803.929 106.703L809.462 100.685V99.1317L809.753 96.6081L809.073 96.8993L808.976 96.3169L802.861 88.843L802.667 88.1636L788.593 55.1621Z" fill="#F9F9F9" stroke="black" stroke-width="0.970631" stroke-linejoin="round"/>
<path d="M811.209 131.258L811.112 129.22L810.821 129.997L811.209 131.258ZM813.15 129.705L811.889 127.279L811.791 129.802L813.15 129.705ZM812.568 126.696L813.247 128.444L814.121 129.997L814.703 128.832L813.83 127.182L813.539 126.017H812.568V126.696ZM801.794 122.717L802.182 123.785L805.191 132.229L805.774 134.267L805.871 136.597L806.065 136.306L810.724 132.617L809.85 126.017L811.792 125.629L807.521 120.484L803.056 122.232L801.794 122.717Z" fill="#F9F9F9" stroke="black" stroke-width="0.970631" stroke-linejoin="round"/>
<path d="M787.72 112.04L783.352 96.1214L784.128 90.2976V83.9885L783.061 78.9412L787.234 73.4086L787.429 71.6615L785.099 62.9258L783.837 63.4111L778.499 65.3524L773.257 67.3907L761.221 71.7585L760.542 71.9527L764.91 82.1443L766.366 91.7535L771.51 99.8098L776.363 115.728L776.557 115.631L777.334 115.34L779.566 114.66L781.508 113.981L787.04 112.331L787.72 112.04Z" fill="#F9F9F9" stroke="black" stroke-width="0.970631" stroke-linejoin="round"/>
<path d="M583.013 324.026L583.401 324.803L584.76 325.676L585.343 365.472L585.537 387.311L590.487 417.207L590.875 417.11L595.243 417.983L596.408 409.345L598.349 414.198L601.649 417.207L607.958 413.518L607.279 412.936L607.473 413.033L603.105 403.036L645.036 396.241L647.851 395.756V395.659L645.231 390.709L645.036 383.623L642.901 379.741L643.969 372.17L645.716 370.228L638.533 357.416L625.527 317.814L625.43 317.62L622.518 318.105L606.988 320.629L599.223 321.6L582.916 323.832L583.013 324.026Z" fill="#F9F9F9" stroke="black" stroke-width="0.970631" stroke-linejoin="round"/>
<path d="M719.387 514.463H719.193L719.29 514.561L719.387 514.463ZM718.513 514.366V514.463H718.611L718.513 514.366ZM704.439 515.822H704.342V515.919L704.439 515.822ZM732.005 509.707H731.908L732.005 509.901V509.707ZM734.626 509.028V508.834L734.432 509.125L734.626 509.028ZM733.655 508.834L733.267 508.445L733.17 508.543L733.655 508.834ZM733.364 509.61L732.199 508.154L732.879 509.416L733.364 509.61ZM742.585 503.884V504.272L742.779 504.078L742.585 503.884ZM743.944 502.913L744.235 502.428L743.847 502.816L743.944 502.913ZM744.235 501.942H744.138V502.039L744.235 501.942ZM743.362 500.195L743.265 500.098V500.292L743.362 500.195ZM744.041 497.866L743.847 497.963L744.138 498.06L744.041 497.866ZM744.429 497.866L744.235 497.671L744.332 497.963L744.429 497.866ZM743.75 497.671L743.653 497.574V497.768L743.75 497.671ZM747.341 496.992V496.895L747.147 497.283L747.341 496.992ZM743.265 497.38H743.07L743.265 497.477V497.38ZM745.303 496.216H745.012L744.915 496.313L745.303 496.216ZM737.926 496.118V495.924L737.829 496.118H737.926ZM738.8 495.827H738.508L738.8 496.41V495.827ZM736.47 495.924V495.342L735.985 495.439L736.47 495.924ZM735.111 494.954L735.597 495.439V495.245L735.111 494.954ZM749.38 495.536L747.632 496.313L748.215 496.41L749.38 495.536ZM735.791 494.663H735.208V494.857L735.791 494.663ZM751.127 489.809L751.224 489.324L751.321 488.062L751.127 489.809ZM751.224 484.374L750.836 483.403L750.641 483.791L751.224 484.374ZM728.802 486.8L728.608 487.092L729.093 487.189L728.802 486.8ZM726.958 485.927L726.084 486.218L726.764 486.315L726.958 485.927ZM725.017 486.121V485.83L724.92 485.927L725.017 486.121ZM722.978 486.024L722.396 486.412L723.173 486.8L722.978 486.024ZM725.696 486.121L725.599 485.83L725.114 485.733L725.696 486.121ZM712.981 476.609L712.399 476.9L713.563 477.288L712.981 476.609ZM710.651 473.503L709.875 472.338L710.166 473.212L710.651 473.503ZM713.66 475.444L712.302 472.338L711.331 472.047L713.66 475.444ZM709.778 471.561L709.487 470.785L709.293 470.3L709.778 471.561ZM701.722 460.788L699.974 459.526L700.654 460.205L701.722 460.788ZM745.4 454.284L738.314 442.443H737.926L745.4 454.284ZM696.383 435.357L696.092 435.26L696.383 435.454V435.357ZM695.801 434.678L695.704 434.775L695.801 434.872V434.678ZM695.121 433.707V433.61L695.024 433.707H695.121ZM695.51 433.319L695.801 433.513V433.319H695.51ZM696.092 432.93L695.704 433.027H695.801L696.092 432.93ZM695.413 432.833L695.121 432.542L695.218 432.639L695.413 432.833ZM694.733 431.766H694.539L694.83 431.863L694.733 431.766ZM695.413 430.601H695.024L694.927 430.698L695.413 430.601ZM695.801 430.795L695.315 430.31L695.51 430.407L695.801 430.795ZM692.112 426.621L691.918 426.524V426.621H692.112ZM687.939 426.621L687.647 426.233L687.745 426.718L687.939 426.621ZM652.608 423.418L655.52 421.186L652.316 423.321L652.608 423.418ZM658.431 418.759L658.723 418.468L657.558 418.953L658.431 418.759ZM621.547 412.256L610.968 415.653L616.791 414.003L621.547 412.256ZM647.852 395.755L645.037 396.24L603.105 403.035L607.473 413.032L607.765 413.129L606.697 417.109L609.803 415.75L613.2 412.741L619.024 412.547L625.721 410.121L630.283 410.8L629.215 412.45L637.563 415.265L644.746 418.759L646.396 422.642L651.734 421.477L664.352 411.188L669.011 411.382L688.036 425.748L691.918 424.971L695.995 430.407L696.771 439.045L695.51 444.481L696.092 447.199L699.489 453.993L697.936 448.655L702.304 448.557L702.692 452.44L700.363 458.458L708.419 469.523L711.428 469.62L708.904 466.223L712.01 466.611L713.854 465.447L713.078 471.659L717.252 474.959L720.067 482.53L723.852 484.859L728.705 486.121L735.403 494.663L738.897 496.507L734.238 496.798L736.373 499.224L744.041 496.701L747.827 494.565L751.321 482.336L749.574 463.311L749.185 461.37L739.867 445.84L731.908 434.58L727.443 425.359L731.229 428.563L732.005 427.98L733.655 436.036L737.926 442.151L733.752 433.998L733.947 430.116L721.425 414.877L718.416 410.121L714.437 402.064L711.719 395.27L709.584 392.843L709.098 389.737L709.001 389.64L702.304 389.252L699.683 391.29L698.227 398.764L696.868 395.27L651.055 400.997L647.755 395.852L647.852 395.755Z" fill="#F9F9F9"/>
<path d="M718.708 514.269V514.172M705.507 515.725V515.822M705.313 515.822V515.725M742.488 501.651L742.391 501.554M740.741 500.098L740.644 500.001M746.079 495.73H745.982M719.387 514.463H719.193L719.29 514.561L719.387 514.463ZM718.513 514.366V514.463H718.611L718.513 514.366ZM704.439 515.822H704.342V515.919L704.439 515.822ZM732.005 509.707H731.908L732.005 509.901V509.707ZM734.626 509.028V508.834L734.432 509.125L734.626 509.028ZM733.655 508.834L733.267 508.445L733.17 508.543L733.655 508.834ZM733.364 509.61L732.199 508.154L732.879 509.416L733.364 509.61ZM742.585 503.884V504.272L742.779 504.078L742.585 503.884ZM743.944 502.913L744.235 502.428L743.847 502.816L743.944 502.913ZM744.235 501.942H744.138V502.039L744.235 501.942ZM743.362 500.195L743.265 500.098V500.292L743.362 500.195ZM744.041 497.866L743.847 497.963L744.138 498.06L744.041 497.866ZM744.429 497.866L744.235 497.671L744.332 497.963L744.429 497.866ZM743.75 497.671L743.653 497.574V497.768L743.75 497.671ZM747.341 496.992V496.895L747.147 497.283L747.341 496.992ZM743.265 497.38H743.07L743.265 497.477V497.38ZM745.303 496.216H745.012L744.915 496.313L745.303 496.216ZM737.926 496.118V495.924L737.829 496.118H737.926ZM738.8 495.827H738.508L738.8 496.41V495.827ZM736.47 495.924V495.342L735.985 495.439L736.47 495.924ZM735.111 494.954L735.597 495.439V495.245L735.111 494.954ZM749.38 495.536L747.632 496.313L748.215 496.41L749.38 495.536ZM735.791 494.663H735.208V494.857L735.791 494.663ZM751.127 489.809L751.224 489.324L751.321 488.062L751.127 489.809ZM751.224 484.374L750.836 483.403L750.641 483.791L751.224 484.374ZM728.802 486.8L728.608 487.092L729.093 487.189L728.802 486.8ZM726.958 485.927L726.084 486.218L726.764 486.315L726.958 485.927ZM725.017 486.121V485.83L724.92 485.927L725.017 486.121ZM722.978 486.024L722.396 486.412L723.173 486.8L722.978 486.024ZM725.696 486.121L725.599 485.83L725.114 485.733L725.696 486.121ZM712.981 476.609L712.399 476.9L713.563 477.288L712.981 476.609ZM710.651 473.503L709.875 472.338L710.166 473.212L710.651 473.503ZM713.66 475.444L712.302 472.338L711.331 472.047L713.66 475.444ZM709.778 471.561L709.487 470.785L709.293 470.3L709.778 471.561ZM701.722 460.788L699.974 459.526L700.654 460.205L701.722 460.788ZM745.4 454.284L738.314 442.443H737.926L745.4 454.284ZM696.383 435.357L696.092 435.26L696.383 435.454V435.357ZM695.801 434.678L695.704 434.775L695.801 434.872V434.678ZM695.121 433.707V433.61L695.024 433.707H695.121ZM695.51 433.319L695.801 433.513V433.319H695.51ZM696.092 432.93L695.704 433.027H695.801L696.092 432.93ZM695.413 432.833L695.121 432.542L695.218 432.639L695.413 432.833ZM694.733 431.766H694.539L694.83 431.863L694.733 431.766ZM695.413 430.601H695.024L694.927 430.698L695.413 430.601ZM695.801 430.795L695.315 430.31L695.51 430.407L695.801 430.795ZM692.112 426.621L691.918 426.524V426.621H692.112ZM687.939 426.621L687.647 426.233L687.745 426.718L687.939 426.621ZM652.608 423.418L655.52 421.186L652.316 423.321L652.608 423.418ZM658.431 418.759L658.723 418.468L657.558 418.953L658.431 418.759ZM621.547 412.256L610.968 415.653L616.791 414.003L621.547 412.256ZM647.852 395.755L645.037 396.24L603.105 403.035L607.473 413.032L607.765 413.129L606.697 417.109L609.803 415.75L613.2 412.741L619.024 412.547L625.721 410.121L630.283 410.8L629.215 412.45L637.563 415.265L644.746 418.759L646.396 422.642L651.734 421.477L664.352 411.188L669.011 411.382L688.036 425.748L691.918 424.971L695.995 430.407L696.771 439.045L695.51 444.481L696.092 447.199L699.489 453.993L697.936 448.655L702.304 448.557L702.692 452.44L700.363 458.458L708.419 469.523L711.428 469.62L708.904 466.223L712.01 466.611L713.854 465.447L713.078 471.659L717.252 474.959L720.067 482.53L723.852 484.859L728.705 486.121L735.403 494.663L738.897 496.507L734.238 496.798L736.373 499.224L744.041 496.701L747.827 494.565L751.321 482.336L749.574 463.311L749.185 461.37L739.867 445.84L731.908 434.58L727.443 425.359L731.229 428.563L732.005 427.98L733.655 436.036L737.926 442.151L733.752 433.998L733.947 430.116L721.425 414.877L718.416 410.121L714.437 402.064L711.719 395.27L709.584 392.843L709.098 389.737L709.001 389.64L702.304 389.252L699.683 391.29L698.227 398.764L696.868 395.27L651.055 400.997L647.755 395.852L647.852 395.755Z" stroke="black" stroke-width="0.970631" stroke-linejoin="round"/>
<path d="M710.554 375.276L710.457 372.364L709.777 374.888L710.554 375.276ZM711.622 370.811L711.233 368.578L710.942 369.937L711.622 370.811ZM666.196 309.661L664.934 309.952L661.246 310.729L647.657 313.544L646.395 313.835L645.036 314.029L637.466 315.485L635.427 315.873L627.177 317.426L625.43 317.62L625.527 317.814L638.533 357.416L645.716 370.229L643.969 372.17L642.901 379.741L645.036 383.623L645.231 390.709L647.851 395.659V395.756L647.754 395.853L651.054 400.998L696.868 395.271L698.227 398.765L699.683 391.291L702.304 389.253L709.001 389.641L708.419 379.158L709.68 376.926L709.001 372.752L710.36 368.773L712.398 366.54L710.942 365.181L714.339 361.008H714.242L708.419 355.572L700.459 344.216L696.092 342.177L677.358 326.453L672.796 320.629L663.964 316.941L663.478 315L666.196 309.661Z" fill="#F9F9F9" stroke="black" stroke-width="0.970631" stroke-linejoin="round"/>
<path d="M581.461 421.963L580.975 422.06V422.157L581.461 421.963ZM590.487 420.798H589.129L590.39 420.895L590.487 420.798ZM579.228 421.769L578.84 422.157L578.937 422.254L579.228 421.769ZM588.352 420.992H584.664L588.158 421.09L588.352 420.992ZM547.877 328.491V328.588L543.8 335.383L544.188 340.624L538.656 346.739L540.112 348.486L536.423 364.016L538.17 367.317L537.2 367.996L537.297 370.131V370.811L539.529 376.052L539.335 379.255L542.927 383.623L535.55 396.241L534.385 403.812L532.347 406.821L533.706 410.316L532.444 411.577L565.931 407.889L564.766 412.548L569.037 420.895L571.269 423.71V423.613L574.86 419.536L582.431 417.886L589.42 418.663L590.487 417.304V417.207L585.537 387.312L585.343 365.472L584.761 325.676L583.402 324.803L583.014 324.026H582.82L577.966 324.706L569.425 325.871L550.012 328.297L547.877 328.491Z" fill="#F9F9F9" stroke="black" stroke-width="0.970631" stroke-linejoin="round"/>
<path d="M666.196 309.66L663.479 314.999L663.964 316.94L672.797 320.629L677.359 326.452L696.092 342.177L700.46 344.215L708.419 355.571L714.243 361.007L715.213 356.542L713.66 352.271L717.834 355.377L720.163 353.533L716.184 350.233L721.037 349.942L728.608 343.535L727.734 341.885L732.393 338.294L731.908 336.547L735.305 334.411L735.499 329.461L740.838 319.561L744.429 314.999L744.817 314.805L723.172 301.119L715.116 302.672L704.148 302.284L698.712 299.469L666.487 309.66H666.196Z" fill="#F9F9F9" stroke="black" stroke-width="0.970631" stroke-linejoin="round"/>
<path d="M526.135 177.364L525.94 177.85L529.629 180.179L530.794 182.509L534.676 186.197L534.579 189.303L532.444 195.418L527.591 198.912L523.223 199.786L522.349 204.833L523.805 205.513L522.349 215.413L518.758 217.646L519.437 221.431L518.564 221.819L517.787 226.09L520.893 234.729L531.958 244.047L532.929 248.512L535.064 250.744L542.053 250.356L540.791 256.859L540.306 263.848L544.479 267.245L551.08 270.157L554.574 272.875L556.515 278.407L555.448 280.445L562.339 286.075L562.63 286.172L562.048 285.59L563.989 281.028L571.463 283.066L573.307 280.931L571.851 276.66L577.966 273.069L576.316 270.739L577.772 267.439V267.148L577.384 267.051L577.481 258.412L579.616 256.859L583.305 248.221L582.528 244.435L580.102 239.873L581.461 234.729L574.666 186.877L573.695 185.809L571.172 180.082L569.134 177.947L568.26 172.317V172.123L555.156 173.967L547.294 174.938L526.135 177.364Z" fill="#F9F9F9" stroke="black" stroke-width="0.970631" stroke-linejoin="round"/>
<path d="M615.044 179.402L600.194 182.023L596.796 182.703L584.761 184.644L582.237 186.682L578.451 188.429L576.996 188.332L575.248 187.459L574.666 186.876L581.46 234.728L580.102 239.873L582.528 244.435L583.305 248.22L579.616 256.859L577.481 258.412L577.384 267.05L577.772 267.147L578.16 267.05L579.616 264.333H583.208L587.575 262.877L593.011 264.915L593.593 262.683L596.699 260.353L601.358 261.032L603.882 256.082L610.773 256.665L610.676 253.85L616.791 245.794L615.821 242.105L620.091 242.008L625.333 237.834L624.071 233.078L624.265 232.884L624.071 231.234L618.247 196.874L615.627 182.217L615.335 180.664L615.044 179.402Z" fill="#F9F9F9" stroke="black" stroke-width="0.970631" stroke-linejoin="round"/>
<path d="M557.874 296.364L557.583 295.587L557.001 295.393L556.612 296.655L556.709 296.752L557.777 296.655L557.874 296.364ZM624.265 232.884L624.071 233.078L625.333 237.834L620.092 242.008L615.821 242.105L616.791 245.794L610.676 253.85L610.774 256.665L603.882 256.082L601.358 261.033L596.699 260.353L593.593 262.683L593.011 264.915L587.575 262.877L583.208 264.333H579.616L578.16 267.051L577.772 267.148V267.439L576.316 270.739L577.966 273.068L571.851 276.66L573.307 280.931L571.463 283.066L563.989 281.028L562.048 285.59L562.63 286.172L562.824 286.56L561.951 294.519L561.562 294.714L559.039 296.267L558.942 296.558L561.757 296.169L581.363 293.549L580.393 289.666L583.693 289.569L623.198 284.328L650.958 279.669L651.346 279.378L652.025 278.601L659.305 274.719L664.935 267.342L665.711 264.818L669.4 261.906L674.059 255.985L674.738 255.015L674.447 254.918H672.02L668.914 253.17L663.382 246.473L661.44 239.679V239.485L661.246 239.29L657.17 236.961L655.325 233.855L651.637 237.446L649.308 238.029L646.396 236.864L643.872 238.805L638.631 236.476L637.272 237.058L632.322 232.787L629.798 231.525L625.042 232.108L624.265 232.884Z" fill="#F9F9F9" stroke="black" stroke-width="0.970631" stroke-linejoin="round"/>
<path d="M754.912 311.409L753.845 312.476L754.039 312.67L754.912 311.409ZM755.689 305.779L755.204 306.555L755.398 307.332L755.689 305.779ZM761.513 296.752L760.057 297.723L759.28 298.887L761.513 296.752ZM774.034 290.637L773.451 290.249L772.19 290.152L774.034 290.637ZM771.413 290.055H770.54L769.084 290.831L771.413 290.055ZM774.422 291.122L777.237 284.134L775.296 287.046L774.422 291.122ZM778.596 281.901L779.858 280.057H779.178L778.596 281.901ZM786.749 274.33L784.614 263.556L786.458 269.186L786.749 274.33ZM774.907 249.773L774.713 249.871L774.422 249.968H774.519L779.858 258.995L784.031 263.168L774.907 249.773ZM773.16 250.356L772.384 250.55L772.578 250.647H774.228L774.034 250.065L773.743 250.162H773.451V250.356L773.257 250.453L773.16 250.356ZM683.377 272.486L682.892 273.942L682.989 278.116L681.921 278.019L679.397 283.163L676.583 283.454L671.341 288.599L669.012 287.725L666.003 292.19L658.043 299.373L654.161 300.343L650.084 304.129L649.89 306.652L646.299 308.594L646.396 312.864V313.835L647.658 313.544L661.247 310.729L664.935 309.953L666.197 309.661H666.488L698.713 299.47L704.148 302.285L715.117 302.673L723.173 301.12L744.818 314.806L745.206 314.514L755.204 310.438L755.301 305.099L758.892 298.596L762.775 294.908L770.831 289.569L771.899 287.628L774.034 288.599L775.005 282.192L773.84 284.425L769.763 285.784L765.881 285.881L770.637 282.387L769.181 280.834L770.831 277.339L761.707 275.883L761.319 275.398L769.084 273.942L771.607 275.204L774.81 274.913L777.431 272.972L779.372 269.186L781.12 268.701L780.828 263.362L778.596 261.227L776.363 263.265L776.849 268.41L775.199 262.1L773.937 261.809L764.328 265.789L768.598 261.615L768.793 259.965L773.257 258.897L774.519 255.597L777.528 257.344L774.325 252.588L772.093 250.647L733.267 261.712L708.516 268.021L683.474 272.68L683.377 272.486Z" fill="#F9F9F9" stroke="black" stroke-width="0.970631" stroke-linejoin="round"/>
<path d="M682.891 185.809L680.465 175.326L679.979 173.191L677.262 161.252L673.767 163.484L666.294 169.211L661.44 175.132L657.655 175.714L650.666 179.694L646.784 177.364L635.039 176.006L628.827 177.559L622.712 179.015L616.306 180.373L615.335 180.665L615.627 182.218L618.247 196.874L624.071 231.234L624.265 232.885L625.042 232.108L629.798 231.526L632.322 232.787L637.272 237.058L638.631 236.476L643.872 238.805L646.396 236.864L649.308 238.029L651.637 237.447L655.326 233.855L657.17 236.961L661.246 239.291L661.44 239.485L665.614 237.447L667.07 234.243L665.905 230.943L669.206 225.896L671.632 225.508L671.341 221.237L675.32 215.801L676 216.578L679.591 213.86L682.697 209.201L683.183 187.944L683.377 187.847L682.891 185.809Z" fill="#F9F9F9" stroke="black" stroke-width="0.970631" stroke-linejoin="round"/>
<path d="M650.958 279.669L623.198 284.328L583.693 289.569L580.393 289.666L581.364 293.549L561.757 296.17L558.942 296.558V296.655L558.165 297.626L557.777 297.529V296.752V296.655L556.709 296.752L556.807 296.849L557.389 299.567L555.448 301.993L555.254 306.458V307.235V307.332L552.342 312.962L552.924 316.941L550.206 321.212L551.177 325.095L547.683 328.298L547.877 328.492L550.012 328.298L569.425 325.871L577.966 324.706L582.82 324.027H583.014L582.917 323.833L599.223 321.6L606.988 320.63L622.518 318.106L625.43 317.621L627.177 317.427L635.428 315.874L637.466 315.485L645.037 314.029L646.396 313.835V312.865L646.299 308.594L649.89 306.653L650.084 304.129L654.161 300.343L658.043 299.373L666.003 292.19L669.011 287.725L671.341 288.599L676.582 283.454L679.397 283.163L681.921 278.019L682.989 278.116L682.891 273.942L683.377 272.486L681.824 272.778L676.291 274.331L669.691 275.689L653.093 279.087L651.346 279.378L650.958 279.669Z" fill="#F9F9F9" stroke="black" stroke-width="0.970631" stroke-linejoin="round"/>
<path d="M773.451 250.162H773.742L774.033 250.065L773.839 249.579L773.451 250.162ZM770.151 239.291V239.776L770.636 239.485L770.151 239.291ZM771.316 237.058L771.122 238.32L770.83 238.805L771.316 237.058ZM772.189 234.535L772.286 233.952L772.092 234.535H772.189ZM772.772 231.914L773.063 231.234L772.578 232.981L772.772 231.914ZM772.869 230.458L773.257 228.322L772.772 228.808L772.869 230.458ZM774.616 220.849L774.81 219.975L774.713 220.169L774.616 220.849ZM774.228 218.616L772.966 219.101L771.024 219.975L770.345 220.849L770.636 220.946L768.307 235.408L769.18 237.738L770.539 231.72L773.063 223.858L774.228 218.713V218.616ZM776.169 217.84L775.878 217.937L775.781 218.325L775.295 221.334L775.683 220.266L776.169 217.84ZM674.738 255.015L674.058 255.985L669.399 261.906L665.711 264.818L664.935 267.342L659.305 274.719L652.025 278.601L651.346 279.378L653.093 279.086L669.691 275.689L676.291 274.33L681.823 272.777L683.377 272.486L683.474 272.68L708.516 268.021L733.267 261.712L772.092 250.647L771.801 250.162L771.704 249.87L772.383 250.55L773.16 250.356L773.063 250.259L772.383 246.959L772.869 247.056L774.422 249.968L774.713 249.87L774.907 249.773L774.519 248.997L770.539 242.882L765.589 243.755L763.357 245.6L761.221 243.658L753.941 241.232L748.894 241.038L758.697 240.164L764.133 243.852L765.686 241.426L761.318 235.893L764.424 236.087L762.774 231.623L758.892 231.817L749.671 224.343H748.506L761.512 230.749L760.639 226.284L761.512 224.828L754.912 222.304L749.185 221.916L746.37 219.393L744.041 220.849L743.167 214.151L744.138 214.345L743.944 208.91L743.75 208.716L743.556 208.813L743.362 208.716L742.876 208.327L742.585 208.036L739.479 206.677L736.276 204.348L731.811 203.183L731.52 203.086V203.183L730.937 207.26L721.911 203.377L722.105 209.007L717.154 218.422L714.146 221.722L712.204 227.449L706.283 225.41L703.371 238.611L701.042 243.076L700.654 248.9L698.907 251.715L692.403 253.656L687.065 257.83L684.541 258.218L682.115 260.353L676 258.121L674.932 255.112L674.738 255.015Z" fill="#F9F9F9"/>
<path d="M771.898 235.893L771.801 235.117M773.451 250.162H773.742L774.033 250.065L773.839 249.579L773.451 250.162ZM770.151 239.291V239.776L770.636 239.485L770.151 239.291ZM771.316 237.058L771.122 238.32L770.83 238.805L771.316 237.058ZM772.189 234.535L772.286 233.952L772.092 234.535H772.189ZM772.772 231.914L773.063 231.234L772.578 232.981L772.772 231.914ZM772.869 230.458L773.257 228.322L772.772 228.808L772.869 230.458ZM774.616 220.849L774.81 219.975L774.713 220.169L774.616 220.849ZM774.228 218.616L772.966 219.101L771.024 219.975L770.345 220.849L770.636 220.946L768.307 235.408L769.18 237.738L770.539 231.72L773.063 223.858L774.228 218.713V218.616ZM776.169 217.84L775.878 217.937L775.781 218.325L775.295 221.334L775.683 220.266L776.169 217.84ZM674.738 255.015L674.058 255.985L669.399 261.906L665.711 264.818L664.935 267.342L659.305 274.719L652.025 278.601L651.346 279.378L653.093 279.086L669.691 275.689L676.291 274.33L681.823 272.777L683.377 272.486L683.474 272.68L708.516 268.021L733.267 261.712L772.092 250.647L771.801 250.162L771.704 249.87L772.383 250.55L773.16 250.356L773.063 250.259L772.383 246.959L772.869 247.056L774.422 249.968L774.713 249.87L774.907 249.773L774.519 248.997L770.539 242.882L765.589 243.755L763.357 245.6L761.221 243.658L753.941 241.232L748.894 241.038L758.697 240.164L764.133 243.852L765.686 241.426L761.318 235.893L764.424 236.087L762.774 231.623L758.892 231.817L749.671 224.343H748.506L761.512 230.749L760.639 226.284L761.512 224.828L754.912 222.304L749.185 221.916L746.37 219.393L744.041 220.849L743.167 214.151L744.138 214.345L743.944 208.91L743.75 208.716L743.556 208.813L743.362 208.716L742.876 208.327L742.585 208.036L739.479 206.677L736.276 204.348L731.811 203.183L731.52 203.086V203.183L730.937 207.26L721.911 203.377L722.105 209.007L717.154 218.422L714.146 221.722L712.204 227.449L706.283 225.41L703.371 238.611L701.042 243.076L700.654 248.9L698.907 251.715L692.403 253.656L687.065 257.83L684.541 258.218L682.115 260.353L676 258.121L674.932 255.112L674.738 255.015Z" stroke="black" stroke-width="0.970631" stroke-linejoin="round"/>
<path d="M570.493 113.982L568.066 116.991L566.61 121.359L567.29 123.786L570.493 113.982ZM514.778 91.1726L516.234 89.1342L515.167 90.1049L514.778 91.1726ZM517.011 87.9695L516.526 87.3871L515.458 88.0665L517.011 87.9695ZM495.851 93.405L493.619 95.9287L494.686 107.576L488.474 113.206L487.31 118.641L490.707 121.747L489.736 135.142L493.328 137.86L495.657 138.054L503.034 142.519L507.693 147.372L513.614 150.381L514.973 157.855V158.34L517.787 161.737L517.011 164.358L517.982 170.085L520.893 174.064L526.232 176.879L526.135 177.365L547.295 174.938L555.157 173.967L568.26 172.123L567.872 170.667V166.105L565.251 161.252L564.572 155.137L565.834 148.343L565.154 143.101L567.484 136.598L566.61 135.53L566.804 129.512L568.066 124.951L566.61 123.398L563.795 124.368L562.242 128.445L558.554 130.58L559.719 125.436L563.019 121.068L563.213 119.127L563.31 119.03L558.651 114.371V107.77L553.41 103.5L546.227 103.014L538.85 101.073L522.932 96.2198L519.826 94.4727L519.535 94.7639L514.584 94.0844L512.934 95.055L513.614 87.9694L505.655 92.0461L495.948 93.5991L495.851 93.405ZM514.875 88.2607L514.681 87.5812L514.002 87.8724L514.875 88.2607ZM511.381 87.5812L511.672 86.9988L511.478 86.8047L511.381 87.5812ZM518.467 85.9312L518.176 84.5723L517.884 86.2223L518.467 85.9312Z" fill="#F9F9F9" stroke="black" stroke-width="0.970631" stroke-linejoin="round"/>
<path d="M701.43 202.891L687.648 206.289L683.377 187.847L683.183 187.944L682.697 209.201L679.591 213.86L676 216.577L675.32 215.801L671.341 221.236L671.632 225.507L669.206 225.895L665.905 230.943L667.07 234.243L665.614 237.446L661.44 239.484V239.678L663.382 246.473L668.914 253.17L672.02 254.917H674.447L674.738 255.014L674.932 255.112L676 258.12L682.115 260.353L684.542 258.218L687.065 257.829L692.404 253.656L698.907 251.714L700.654 248.899L701.042 243.076L703.372 238.611L706.284 225.41L712.204 227.449L714.146 221.722L717.155 218.422L722.105 209.007L721.911 203.377L730.938 207.259L731.52 203.183V203.086L728.705 198.233L722.881 197.553L719.484 200.174V202.115L716.572 202.794L712.302 205.803L710.069 206.289L705.604 212.598L703.372 202.406L701.43 202.891Z" fill="#F9F9F9" stroke="black" stroke-width="0.970631" stroke-linejoin="round"/>
<path d="M758.504 186.876L758.892 188.332L766.948 211.336L776.169 208.618L776.072 208.424H776.266L776.558 208.521L776.752 208.424L776.558 208.036L774.228 201.824L762.872 191.05L763.357 183.576H761.028L759.28 184.935L758.504 186.876Z" fill="#F9F9F9" stroke="black" stroke-width="0.970631" stroke-linejoin="round"/>
<path d="M742.876 208.327L743.362 208.715L743.556 208.812L743.75 208.715L743.944 208.812L744.624 209.2L744.818 209.491V210.171L745.012 210.559L746.274 208.23L744.915 207.453L743.265 207.55L742.876 208.327Z" fill="#F9F9F9" stroke="black" stroke-width="0.970631" stroke-linejoin="round"/>
<path d="M776.266 217.451L776.946 212.21L776.364 216.092L775.975 217.742L775.878 217.936L776.169 217.839L776.266 217.451ZM776.752 208.424L776.558 208.521L776.752 209.104V210.268V208.424ZM703.372 202.406L705.605 212.598L710.069 206.289L712.302 205.803L716.573 202.794L719.485 202.115V200.174L722.882 197.553L728.706 198.232L731.52 203.086L731.812 203.183L736.276 204.347L739.48 206.677L742.586 208.036L742.877 208.327L743.265 207.551L744.915 207.453L746.274 208.23L745.012 210.559V210.657L743.168 216.286L749.186 220.169L755.204 220.46L759.183 222.304L757.533 217.645L752.389 215.898L751.127 211.918L754.33 216.189L756.951 216.577L754.621 214.248L752.777 207.356L753.263 203.377L751.224 199.009L753.36 197.262L754.913 191.632L754.33 199.98L755.98 202.794L757.533 199.494L758.407 204.93L756.757 208.909L761.513 210.657L757.436 212.015L759.572 215.995L763.066 217.16L765.007 213.763L764.813 218.519L768.113 218.422L770.249 220.848H770.346L771.025 219.975L772.966 219.101L774.228 218.616L774.131 218.422L776.655 210.948V210.656L776.169 208.715V208.618L766.948 211.336L758.892 188.332L758.504 186.876L756.854 187.361L749.962 189.497L712.011 200.077L705.119 201.921L703.372 202.406Z" fill="#F9F9F9" stroke="black" stroke-width="0.970631" stroke-linejoin="round"/>
<path d="M781.507 186.488L781.022 185.323V186.488H781.507ZM782.478 182.897L782.769 179.985L782.187 182.508L782.478 182.897ZM778.499 153.098L768.307 150.575L766.56 150.089L764.91 149.701L760.833 158.728L762.58 160.863L762.483 167.367L764.327 167.658L768.113 177.558L767.919 177.849L763.163 184.838L763.648 190.176L775.101 194.059L775.198 198.524L777.819 194.836L778.207 189.497L780.925 187.653L779.857 183.673L781.896 178.917V168.531L781.216 165.134L776.654 165.231L777.819 160.572L778.499 153.098Z" fill="#F9F9F9" stroke="black" stroke-width="0.970631" stroke-linejoin="round"/>
<path d="M778.208 160.96L776.752 162.998L776.363 163.581L778.208 160.96ZM791.602 156.204L796.455 151.933V151.739L791.602 156.204ZM778.887 159.213V155.913L778.596 157.66L778.887 159.213ZM801.406 143.683L800.241 143.392L800.047 144.265L801.406 143.683ZM804.026 141.936L803.929 142.906L804.123 142.324L804.026 141.936ZM801.309 142.033L794.805 148.051L784.808 152.321L782.187 154.554L781.993 156.689L779.275 158.922L779.663 161.834L783.837 160.183L789.952 155.233L796.747 151.642L807.035 141.936L799.755 147.468L797.426 148.439L801.309 142.033ZM804.318 137.956L804.706 137.374L803.541 138.733L804.318 137.956ZM695.219 134.365L693.666 134.171L694.83 135.724L695.219 134.365ZM727.443 104.663L727.638 103.596L726.861 104.566L727.443 104.663ZM727.929 97.6749L727.541 97.869L727.055 98.9367L727.929 97.6749ZM686.871 152.807L687.551 155.719L692.695 156.98L722.202 148.924L751.903 139.994L757.339 144.168L758.407 146.595L764.716 149.312L764.91 149.701L766.56 150.089L768.307 150.574L778.499 153.098L778.305 152.613L779.178 156.592L781.119 156.107L782.187 151.739V151.642L780.44 149.992L782.964 146.886L781.799 145.43L778.11 131.162L777.916 130.191L777.431 129.9L777.14 125.629L776.849 120.97L776.557 115.923V115.631L776.363 115.729L771.51 99.8102L766.366 91.754L764.91 82.1448L760.542 71.9531L759.96 72.2443L739.673 79.0387L735.597 83.4066L731.035 92.1423L731.229 94.0835L725.211 103.207L728.899 104.469L729.967 111.361L725.696 116.99L712.884 124.755L710.457 123.785L700.945 125.144L692.113 130.482L692.598 133.297L695.704 136.015L693.957 144.556L686.968 152.71L686.871 152.807Z" fill="#F9F9F9" stroke="black" stroke-width="0.970631" stroke-linejoin="round"/>
<path d="M764.716 149.312L758.406 146.594L757.339 144.168L751.903 139.994L722.202 148.924L692.695 156.98L687.55 155.718L686.871 152.806L685.221 154.068L682.6 155.912L677.844 160.766L677.262 161.251L679.979 173.19L680.465 175.325L682.891 185.808L683.377 187.846L687.648 206.288L701.43 202.891L703.372 202.406L705.119 201.92L712.01 200.076L749.962 189.496L756.854 187.361L758.504 186.876L759.28 184.934L761.027 183.575H763.357L763.648 182.702L767.433 178.431L767.822 177.752L768.113 177.558L764.327 167.657L762.483 167.366L762.58 160.863L760.833 158.727L764.91 149.7L764.716 149.312Z" fill="#F9F9F9" stroke="black" stroke-width="0.970631" stroke-linejoin="round"/>
<path d="M811.5 97.5779H811.403L811.597 97.6749L811.5 97.5779ZM818.682 76.9034L817.906 75.7386V76.321L818.682 76.9034ZM817.323 75.8357V74.8651L817.226 74.2827L817.323 75.8357ZM820.818 71.7591L820.624 71.662L820.721 71.9532L820.818 71.7591ZM830.524 66.9059L830.33 65.45L829.942 66.1294L830.524 66.9059ZM828.097 67.4883L828.195 66.4206L827.03 66.6147L828.097 67.4883ZM831.689 64.2852H831.301V64.4793L831.689 64.2852ZM826.836 65.7411L825.962 65.547L825.865 66.4206L826.836 65.7411ZM831.786 62.7322L832.659 63.4116L832.368 62.6351L831.786 62.7322ZM829.165 62.8292L828.292 64.4793L829.456 63.8969L829.165 62.8292ZM824.991 62.9263L824.603 63.5087L824.894 64.3823L824.991 62.9263ZM830.718 59.7232L830.621 58.9467L830.33 59.432L830.718 59.7232ZM830.233 60.1115L829.359 59.335V60.0144L830.233 60.1115ZM824.797 62.3439L824.603 61.2762L824.215 62.1498L824.797 62.3439ZM834.018 58.9467L832.562 61.0821L832.465 59.5291L834.018 58.9467ZM841.104 52.4435L840.424 51.4729L840.036 51.667L841.104 52.4435ZM843.725 48.0757L843.142 47.7845L843.045 48.0757H843.725ZM844.986 40.5047H844.113L845.083 40.7959L844.986 40.5047ZM846.442 41.4754L846.151 39.7282L845.375 39.6312L846.442 41.4754ZM844.889 39.9223L844.695 38.0782L844.016 39.34L844.889 39.9223ZM788.593 55.1613L802.667 88.1627L802.861 88.8422L808.976 96.316V96.2189L809.947 95.9277L810.141 90.3951L811.694 88.4539L812.664 83.3095L811.791 82.436L813.441 77.3887L819.071 74.768L822.759 70.3031L824.118 62.538L830.039 62.1498L829.262 58.1702L836.639 55.3553L837.124 50.9875L838.871 51.3758L843.725 47.3962L845.86 42.2518L840.91 37.3016L835.668 36.2339L833.727 32.2543V29.9248L830.524 30.8954L826.933 29.6336V25.654L817.226 4.6884L810.141 1L802.279 7.60029L800.143 7.21204L798.299 3.81483L795.775 4.78546L792.184 22.6451L793.446 28.4689L794.514 40.3106L791.699 49.4345L793.64 50.8904L791.311 55.3553L788.787 54.9671L788.593 55.1613Z" fill="#F9F9F9" stroke="black" stroke-width="0.970631" stroke-linejoin="round"/>
<path d="M584.663 117.378L584.178 116.602L584.081 117.573L584.663 117.378ZM586.216 115.631L585.052 114.078L584.857 114.758L586.216 115.631ZM587.187 108.643L586.216 107.769V107.963L587.187 108.643ZM584.76 184.643L596.796 182.702L600.193 182.023L615.044 179.402L615.335 180.664L616.306 180.372L622.712 179.014L628.827 177.558L635.039 176.005L634.942 175.713L638.145 169.404L637.854 164.163L641.445 155.136L644.26 156.786L645.328 154.748L645.037 146.983L642.416 142.13L638.533 131.841L635.136 128.055L633.389 127.57L627.08 131.938L627.759 132.812L624.459 139.024L621.256 138.441L620.285 131.938L621.644 131.453L624.459 124.949L624.75 113.496L620.383 103.79L610.676 102.14L609.706 100.684L600.679 98.0629L596.602 103.11L596.99 107.478L593.884 111.361L594.564 117.378L591.555 119.514V111.943L588.837 117.67L585.634 122.717L583.499 124.367L584.566 129.706L583.207 135.238L583.984 142.13L583.013 145.527L590.002 158.922L590.875 164.066L590.002 173.578L585.343 184.255L584.76 184.643ZM605.532 97.1894L603.008 97.3835L604.561 98.5482L605.532 97.1894ZM590.778 99.713H590.002L590.875 100.101L590.778 99.713ZM607.764 87.386L606.794 85.833L606.405 85.9301L607.764 87.386ZM519.825 94.4716L522.931 96.2187L538.85 101.072L546.226 103.013L553.409 103.498L558.65 107.769V114.37L563.309 119.029V118.931L567.095 107.963L571.657 104.76L575.151 100.878L575.734 104.372L579.325 98.8394L587.964 95.5393L588.643 94.1804L597.379 95.2481L600.776 96.9952L602.426 92.7244L603.979 93.6951L610.773 92.6274L609.123 89.9096L606.114 88.1625L606.697 81.8534L600.776 85.1535L595.34 84.4741L593.593 80.3003L594.176 78.9415L586.799 82.4357L582.043 82.7269L573.501 87.9683L572.53 89.9096L567.289 88.6478L563.989 90.1037L557.389 84.377L542.732 79.9121L542.441 78.165L533.026 87.1918L527.687 88.5507L520.116 94.2774L519.825 94.4716ZM554.186 72.4383L542.829 78.0679L546.615 81.7563L548.071 78.0679L551.953 73.3118L554.186 72.4383ZM541.47 59.1406L533.705 64.4791L533.317 67.0998L539.432 62.6349L541.47 59.1406Z" fill="#F9F9F9" stroke="black" stroke-width="0.970631" stroke-linejoin="round"/>
<mask id="path-53-inside-1_343_106" fill="white">
<path d="M577.683 520C576.346 520.008 576.195 520.137 575.737 520.633C575.272 521.136 575.199 521.346 575.284 521.888C575.524 523.423 575.501 523.518 574.826 523.974C574.472 524.214 573.61 524.654 572.91 524.951C571.535 525.533 571.292 525.81 571.725 526.305C571.878 526.48 572.169 527.008 572.372 527.475C572.7 528.231 572.83 528.345 573.527 528.496C574.221 528.647 574.34 528.751 574.567 529.408C574.709 529.816 574.829 530.286 574.831 530.449C574.833 530.611 575 530.896 575.204 531.081C575.702 531.532 575.668 531.915 575.1 532.371C574.687 532.701 574.625 532.905 574.602 533.959C574.584 534.781 574.475 535.298 574.259 535.583C574.083 535.814 573.94 536.284 573.94 536.629C573.94 536.973 573.842 537.439 573.721 537.665C573.6 537.89 573.528 538.092 573.562 538.113C573.595 538.134 573.878 538.236 574.184 538.337C574.853 538.557 574.793 538.812 574.015 539.064C573.481 539.237 573.435 539.323 573.382 540.229C573.332 541.107 573.363 541.201 573.706 541.201C573.963 541.201 574.089 541.323 574.089 541.574C574.089 541.846 574.212 541.948 574.552 541.948C574.841 541.948 575.015 541.842 575.015 541.669C575.015 541.515 574.933 541.39 574.831 541.39C574.729 541.39 574.647 541.264 574.647 541.111C574.647 540.815 575.3 540.719 575.468 540.991C575.523 541.08 575.905 541.209 576.319 541.275C576.734 541.342 577.122 541.517 577.18 541.669C577.323 542.041 578.36 542.041 578.36 541.669C578.36 541.515 578.277 541.39 578.176 541.39C578.074 541.39 578.173 541.177 578.395 540.922C578.617 540.666 578.951 540.458 579.137 540.458C579.527 540.458 579.57 540.662 579.251 540.981C579.078 541.155 579.118 541.201 579.435 541.201C579.66 541.201 579.843 541.127 579.843 541.036C579.843 540.754 580.383 540.647 580.869 540.832C581.175 540.948 581.327 540.943 581.327 540.817C581.327 540.712 581.632 540.919 581.999 541.275C582.598 541.857 582.962 542.011 583.955 542.102C584.122 542.117 584.302 541.953 584.358 541.738C584.451 541.383 584.543 541.362 585.398 541.479C586.043 541.568 586.339 541.541 586.339 541.4C586.339 541.273 586.515 541.241 586.792 541.31C587.064 541.378 587.493 541.295 587.862 541.101C588.2 540.924 588.597 540.719 588.748 540.648C588.899 540.576 589.068 540.331 589.122 540.105C589.244 539.585 589.589 539.5 589.59 539.99C589.59 540.193 589.734 540.389 589.913 540.424C590.126 540.465 590.24 540.372 590.242 540.15C590.244 539.862 590.272 539.853 590.431 540.09C590.593 540.333 590.65 540.323 590.874 540.03C591.038 539.816 591.174 539.764 591.252 539.891C591.404 540.137 592.815 540.832 593.163 540.832C593.305 540.832 593.548 540.706 593.701 540.553C594.074 540.18 594.697 540.196 594.697 540.578C594.697 541.051 597.383 540.846 598.3 540.304C599.333 539.695 600.46 539.756 601.162 540.458C601.469 540.765 601.841 541.016 601.989 541.016C602.136 541.016 602.478 541.191 602.75 541.405C603.215 541.77 603.275 541.777 603.706 541.494C603.958 541.329 604.164 541.124 604.164 541.036C604.164 540.949 604.416 540.771 604.726 540.643C605.212 540.442 605.378 540.454 605.931 540.752C606.306 540.954 606.573 541.245 606.573 541.445C606.573 541.703 606.669 541.753 606.951 541.664C607.157 541.598 607.7 541.52 608.161 541.489C608.622 541.459 609.158 541.295 609.351 541.121C609.672 540.829 609.741 540.824 610.227 541.096L610.754 541.395L610.107 541.345C609.618 541.308 609.45 541.372 609.4 541.619C609.343 541.905 609.496 541.948 610.714 541.948C611.717 541.948 612.165 541.871 612.332 541.669C612.459 541.515 612.681 541.39 612.825 541.39C612.969 541.39 613.29 541.251 613.542 541.086C613.877 540.866 614.215 540.822 614.811 540.912C615.515 541.017 615.704 540.97 616.205 540.548L616.782 540.06L617.345 540.463C617.727 540.736 617.984 540.807 618.136 540.688C618.26 540.59 618.777 540.455 619.281 540.389C619.785 540.323 620.387 540.148 620.62 539.995C620.853 539.843 621.172 539.716 621.332 539.716C621.492 539.716 621.671 539.591 621.73 539.438C621.789 539.284 621.942 539.159 622.068 539.159C622.195 539.159 622.563 539.026 622.885 538.865C623.39 538.613 623.467 538.479 623.467 537.859C623.467 537.194 623.506 537.144 623.97 537.177C624.424 537.208 624.481 537.134 624.612 536.395C624.691 535.946 624.896 535.426 625.065 535.239C625.233 535.053 625.321 534.768 625.259 534.607C625.194 534.437 625.258 534.27 625.418 534.208C625.57 534.15 625.697 533.958 625.697 533.775C625.697 533.365 626.264 533.118 626.463 533.442C626.581 533.632 626.654 533.625 626.847 533.422C627.02 533.239 627.03 533.15 626.877 533.093C626.76 533.05 626.708 532.842 626.762 532.635C626.86 532.261 627.127 532.251 627.997 532.585C628.219 532.67 628.295 532.582 628.295 532.231C628.295 531.856 628.365 531.785 628.664 531.863C628.922 531.93 629.037 531.867 629.037 531.659C629.037 531.494 629.119 531.36 629.221 531.36C629.323 531.36 629.41 531.486 629.41 531.639C629.41 532 630.313 532.013 630.451 531.654C630.506 531.508 630.46 531.214 630.346 531.001C630.194 530.716 630.191 530.618 630.346 530.618C630.461 530.618 630.601 530.782 630.655 530.986C630.717 531.227 630.906 531.36 631.192 531.36C631.66 531.36 631.798 531.085 631.406 530.927C631.279 530.875 631.369 530.825 631.61 530.817C631.955 530.806 632.03 530.72 631.954 530.429C631.891 530.187 631.948 530.06 632.118 530.06C632.592 530.06 632.39 529.51 631.869 529.383C631.588 529.314 631.296 529.166 631.217 529.054C631.12 528.916 630.99 528.96 630.819 529.184C630.583 529.491 630.558 529.493 630.446 529.199C630.378 529.022 630.427 528.812 630.56 528.725C630.743 528.607 630.75 528.537 630.58 528.427C630.44 528.336 630.418 528.184 630.52 528.018C630.618 527.861 630.604 527.608 630.485 527.386C630.322 527.081 630.354 526.964 630.679 526.748C631.135 526.446 631.232 525.875 630.799 526.041C630.446 526.177 630.453 525.805 630.809 525.334C630.959 525.136 631.078 524.854 631.078 524.707C631.078 524.311 629.772 524.564 629.415 525.03C629.174 525.345 629.024 525.378 628.42 525.239C628.029 525.15 627.567 524.947 627.389 524.786C627.212 524.625 626.753 524.47 626.369 524.443C625.768 524.4 625.653 524.321 625.563 523.87C625.475 523.434 625.386 523.363 625.035 523.452C624.794 523.512 624.582 523.468 624.542 523.347C624.489 523.188 624.372 523.187 624.074 523.347C623.745 523.523 623.634 523.501 623.432 523.212C623.292 523.013 622.834 522.805 622.357 522.724C621.9 522.647 621.346 522.463 621.123 522.316C620.853 522.139 620.497 522.091 620.067 522.172C619.711 522.238 618.958 522.189 618.39 522.062C617.56 521.876 617.299 521.878 617.071 522.067C616.712 522.365 614.863 522.162 614.159 521.748C613.537 521.383 613 521.557 613.163 522.072C613.255 522.36 613.198 522.446 612.91 522.446C612.704 522.446 612.473 522.339 612.392 522.211C612.247 521.983 612.214 521.884 612.168 521.514C612.125 521.175 611.835 521.323 611.62 521.793C611.381 522.318 611.002 522.39 610.66 521.977C610.5 521.785 610.491 521.699 610.635 521.699C610.749 521.699 610.844 521.616 610.844 521.514C610.844 521.412 610.68 521.33 610.475 521.33C610.271 521.33 610.102 521.412 610.102 521.514C610.102 521.773 608.866 521.749 608.375 521.479C608.152 521.357 607.382 521.242 606.668 521.225C604.896 521.183 603.483 521.002 603.044 520.767C602.794 520.633 602.676 520.636 602.676 520.767C602.676 520.873 602.403 520.957 602.068 520.957C601.734 520.957 601.272 521.09 601.043 521.25C600.665 521.515 600.471 521.517 598.947 521.255C598.024 521.097 597.183 520.913 597.076 520.847C596.969 520.781 596.827 520.811 596.762 520.917C596.681 521.049 596.344 521.048 595.682 520.917C594.934 520.769 594.299 520.8 592.855 521.041C591.167 521.324 590.887 521.322 589.828 521.066C588.607 520.771 586.158 520.715 585.488 520.966C584.906 521.185 582.35 520.813 581.655 520.409C581.206 520.147 580.644 520.049 579.475 520.025C578.71 520.01 578.129 519.998 577.683 520ZM631.575 524.358C631.538 524.357 631.511 524.363 631.496 524.378C631.445 524.428 631.45 524.592 631.506 524.736C631.607 525 632.566 525.117 632.566 524.866C632.566 524.714 631.837 524.363 631.575 524.358ZM564.249 524.587C564.02 524.589 563.792 524.657 563.746 524.796C563.667 525.031 564.196 525.211 564.582 525.08C564.714 525.035 564.79 524.906 564.751 524.791C564.705 524.653 564.478 524.585 564.249 524.587ZM633.029 524.856C632.876 524.856 632.75 524.943 632.75 525.045C632.75 525.147 632.876 525.229 633.029 525.229C633.182 525.229 633.308 525.147 633.308 525.045C633.308 524.943 633.182 524.856 633.029 524.856ZM633.875 525.229C633.779 525.229 633.649 525.312 633.586 525.414C633.523 525.516 633.601 525.603 633.761 525.603C633.92 525.603 634.049 525.516 634.049 525.414C634.049 525.312 633.971 525.229 633.875 525.229ZM639.619 525.229C639.517 525.229 639.435 525.312 639.435 525.414C639.435 525.516 639.517 525.603 639.619 525.603C639.721 525.603 639.803 525.516 639.803 525.414C639.803 525.312 639.721 525.229 639.619 525.229ZM632.203 525.603C632.151 525.608 632.103 525.628 632.068 525.663C632.009 525.722 632.013 525.898 632.073 526.056C632.216 526.427 632.75 526.432 632.75 526.061C632.75 525.82 632.425 525.582 632.203 525.603ZM640.57 525.613C640.447 525.626 640.361 525.747 640.361 525.971C640.361 526.176 640.452 526.345 640.565 526.345C640.701 526.345 640.732 526.569 640.65 527.007C640.572 527.422 640.607 527.773 640.744 527.939C641.061 528.321 641.287 528.261 641.287 527.799C641.287 527.449 641.365 527.49 641.884 528.098L642.481 528.795L642.815 528.387C642.997 528.161 643.143 528.069 643.143 528.183C643.143 528.296 643.269 528.387 643.422 528.387C643.575 528.387 643.701 528.223 643.701 528.023C643.701 527.755 643.874 527.63 644.353 527.54C644.828 527.451 645 527.323 645 527.062C645 526.771 644.883 526.713 644.358 526.748C644.004 526.772 643.658 526.73 643.586 526.659C643.515 526.587 643.602 526.529 643.78 526.529C643.959 526.529 644.071 526.428 644.029 526.3C643.941 526.032 642.959 525.863 642.959 526.116C642.959 526.417 641.247 526.234 641.008 525.907C640.855 525.698 640.693 525.6 640.57 525.613ZM638.783 526.345C638.63 526.345 638.504 526.427 638.504 526.529C638.504 526.631 638.621 526.713 638.763 526.713C638.905 526.713 639.07 526.848 639.131 527.007C639.244 527.302 639.619 527.214 639.619 526.893C639.619 526.797 639.494 526.713 639.34 526.713C639.187 526.713 639.062 526.631 639.062 526.529C639.062 526.427 638.936 526.345 638.783 526.345ZM632.008 526.903C631.906 526.903 631.819 527.028 631.819 527.182C631.819 527.335 631.906 527.46 632.008 527.46C632.111 527.46 632.193 527.335 632.193 527.182C632.193 527.028 632.111 526.903 632.008 526.903ZM630.988 527.087C630.835 527.087 630.709 527.169 630.709 527.271C630.709 527.373 630.835 527.46 630.988 527.46C631.141 527.46 631.267 527.373 631.267 527.271C631.267 527.169 631.141 527.087 630.988 527.087ZM547.215 533.033C547.138 533.049 547.05 533.121 547.011 533.237C546.973 533.352 547.036 533.415 547.151 533.377C547.265 533.339 547.36 533.244 547.36 533.168C547.36 533.059 547.293 533.018 547.215 533.033ZM638.808 533.143C637.63 533.138 636.76 533.33 635.627 533.76C634.708 534.109 633.52 534.431 632.984 534.477C632.084 534.555 632.008 534.601 632.008 535.04C632.008 535.849 632.68 536.375 633.711 536.375C634.204 536.375 634.607 536.297 634.607 536.205C634.607 535.954 635.604 535.751 635.682 535.986C635.832 536.437 637.822 536.043 638.021 535.523C638.086 535.355 638.388 535.259 638.853 535.259C639.257 535.259 639.634 535.153 639.694 535.025C639.781 534.839 639.826 534.839 639.913 535.025C640.058 535.337 640.544 535.321 640.908 534.99C641.072 534.843 641.695 534.611 642.297 534.477C644.145 534.067 643.824 533.675 641.381 533.357C640.33 533.22 639.514 533.146 638.808 533.143ZM550.237 534.532C550.022 534.531 549.742 534.544 549.371 534.557L547.857 534.607L547.574 535.389C547.297 536.148 547.302 536.177 547.743 536.544C547.992 536.751 548.29 536.919 548.405 536.923C548.52 536.926 548.717 537.059 548.848 537.216C548.979 537.374 549.206 537.461 549.351 537.406C549.496 537.35 549.724 537.301 549.853 537.301C550.228 537.301 551.257 536.221 551.257 535.827C551.257 535.63 551.174 535.252 551.073 534.985C550.938 534.63 550.881 534.535 550.237 534.532ZM594.323 540.643C594.221 540.643 594.139 540.73 594.139 540.832C594.139 540.934 594.221 541.016 594.323 541.016C594.425 541.016 594.507 540.934 594.507 540.832C594.507 540.73 594.425 540.643 594.323 540.643ZM580.879 541.201C580.381 541.201 580.23 541.472 580.635 541.634C580.956 541.762 581.2 541.686 581.287 541.425C581.331 541.292 581.166 541.201 580.879 541.201ZM577.439 542.132C576.894 542.132 576.592 542.345 576.817 542.57C576.966 542.72 577.313 542.721 577.693 542.575C578.174 542.39 578.025 542.132 577.439 542.132ZM598.589 542.874C598.278 542.874 597.852 543.474 597.852 543.91C597.852 544.114 598.258 543.952 598.594 543.616C599.068 543.142 599.066 542.874 598.589 542.874Z"/>
</mask>
<path d="M577.683 520C576.346 520.008 576.195 520.137 575.737 520.633C575.272 521.136 575.199 521.346 575.284 521.888C575.524 523.423 575.501 523.518 574.826 523.974C574.472 524.214 573.61 524.654 572.91 524.951C571.535 525.533 571.292 525.81 571.725 526.305C571.878 526.48 572.169 527.008 572.372 527.475C572.7 528.231 572.83 528.345 573.527 528.496C574.221 528.647 574.34 528.751 574.567 529.408C574.709 529.816 574.829 530.286 574.831 530.449C574.833 530.611 575 530.896 575.204 531.081C575.702 531.532 575.668 531.915 575.1 532.371C574.687 532.701 574.625 532.905 574.602 533.959C574.584 534.781 574.475 535.298 574.259 535.583C574.083 535.814 573.94 536.284 573.94 536.629C573.94 536.973 573.842 537.439 573.721 537.665C573.6 537.89 573.528 538.092 573.562 538.113C573.595 538.134 573.878 538.236 574.184 538.337C574.853 538.557 574.793 538.812 574.015 539.064C573.481 539.237 573.435 539.323 573.382 540.229C573.332 541.107 573.363 541.201 573.706 541.201C573.963 541.201 574.089 541.323 574.089 541.574C574.089 541.846 574.212 541.948 574.552 541.948C574.841 541.948 575.015 541.842 575.015 541.669C575.015 541.515 574.933 541.39 574.831 541.39C574.729 541.39 574.647 541.264 574.647 541.111C574.647 540.815 575.3 540.719 575.468 540.991C575.523 541.08 575.905 541.209 576.319 541.275C576.734 541.342 577.122 541.517 577.18 541.669C577.323 542.041 578.36 542.041 578.36 541.669C578.36 541.515 578.277 541.39 578.176 541.39C578.074 541.39 578.173 541.177 578.395 540.922C578.617 540.666 578.951 540.458 579.137 540.458C579.527 540.458 579.57 540.662 579.251 540.981C579.078 541.155 579.118 541.201 579.435 541.201C579.66 541.201 579.843 541.127 579.843 541.036C579.843 540.754 580.383 540.647 580.869 540.832C581.175 540.948 581.327 540.943 581.327 540.817C581.327 540.712 581.632 540.919 581.999 541.275C582.598 541.857 582.962 542.011 583.955 542.102C584.122 542.117 584.302 541.953 584.358 541.738C584.451 541.383 584.543 541.362 585.398 541.479C586.043 541.568 586.339 541.541 586.339 541.4C586.339 541.273 586.515 541.241 586.792 541.31C587.064 541.378 587.493 541.295 587.862 541.101C588.2 540.924 588.597 540.719 588.748 540.648C588.899 540.576 589.068 540.331 589.122 540.105C589.244 539.585 589.589 539.5 589.59 539.99C589.59 540.193 589.734 540.389 589.913 540.424C590.126 540.465 590.24 540.372 590.242 540.15C590.244 539.862 590.272 539.853 590.431 540.09C590.593 540.333 590.65 540.323 590.874 540.03C591.038 539.816 591.174 539.764 591.252 539.891C591.404 540.137 592.815 540.832 593.163 540.832C593.305 540.832 593.548 540.706 593.701 540.553C594.074 540.18 594.697 540.196 594.697 540.578C594.697 541.051 597.383 540.846 598.3 540.304C599.333 539.695 600.46 539.756 601.162 540.458C601.469 540.765 601.841 541.016 601.989 541.016C602.136 541.016 602.478 541.191 602.75 541.405C603.215 541.77 603.275 541.777 603.706 541.494C603.958 541.329 604.164 541.124 604.164 541.036C604.164 540.949 604.416 540.771 604.726 540.643C605.212 540.442 605.378 540.454 605.931 540.752C606.306 540.954 606.573 541.245 606.573 541.445C606.573 541.703 606.669 541.753 606.951 541.664C607.157 541.598 607.7 541.52 608.161 541.489C608.622 541.459 609.158 541.295 609.351 541.121C609.672 540.829 609.741 540.824 610.227 541.096L610.754 541.395L610.107 541.345C609.618 541.308 609.45 541.372 609.4 541.619C609.343 541.905 609.496 541.948 610.714 541.948C611.717 541.948 612.165 541.871 612.332 541.669C612.459 541.515 612.681 541.39 612.825 541.39C612.969 541.39 613.29 541.251 613.542 541.086C613.877 540.866 614.215 540.822 614.811 540.912C615.515 541.017 615.704 540.97 616.205 540.548L616.782 540.06L617.345 540.463C617.727 540.736 617.984 540.807 618.136 540.688C618.26 540.59 618.777 540.455 619.281 540.389C619.785 540.323 620.387 540.148 620.62 539.995C620.853 539.843 621.172 539.716 621.332 539.716C621.492 539.716 621.671 539.591 621.73 539.438C621.789 539.284 621.942 539.159 622.068 539.159C622.195 539.159 622.563 539.026 622.885 538.865C623.39 538.613 623.467 538.479 623.467 537.859C623.467 537.194 623.506 537.144 623.97 537.177C624.424 537.208 624.481 537.134 624.612 536.395C624.691 535.946 624.896 535.426 625.065 535.239C625.233 535.053 625.321 534.768 625.259 534.607C625.194 534.437 625.258 534.27 625.418 534.208C625.57 534.15 625.697 533.958 625.697 533.775C625.697 533.365 626.264 533.118 626.463 533.442C626.581 533.632 626.654 533.625 626.847 533.422C627.02 533.239 627.03 533.15 626.877 533.093C626.76 533.05 626.708 532.842 626.762 532.635C626.86 532.261 627.127 532.251 627.997 532.585C628.219 532.67 628.295 532.582 628.295 532.231C628.295 531.856 628.365 531.785 628.664 531.863C628.922 531.93 629.037 531.867 629.037 531.659C629.037 531.494 629.119 531.36 629.221 531.36C629.323 531.36 629.41 531.486 629.41 531.639C629.41 532 630.313 532.013 630.451 531.654C630.506 531.508 630.46 531.214 630.346 531.001C630.194 530.716 630.191 530.618 630.346 530.618C630.461 530.618 630.601 530.782 630.655 530.986C630.717 531.227 630.906 531.36 631.192 531.36C631.66 531.36 631.798 531.085 631.406 530.927C631.279 530.875 631.369 530.825 631.61 530.817C631.955 530.806 632.03 530.72 631.954 530.429C631.891 530.187 631.948 530.06 632.118 530.06C632.592 530.06 632.39 529.51 631.869 529.383C631.588 529.314 631.296 529.166 631.217 529.054C631.12 528.916 630.99 528.96 630.819 529.184C630.583 529.491 630.558 529.493 630.446 529.199C630.378 529.022 630.427 528.812 630.56 528.725C630.743 528.607 630.75 528.537 630.58 528.427C630.44 528.336 630.418 528.184 630.52 528.018C630.618 527.861 630.604 527.608 630.485 527.386C630.322 527.081 630.354 526.964 630.679 526.748C631.135 526.446 631.232 525.875 630.799 526.041C630.446 526.177 630.453 525.805 630.809 525.334C630.959 525.136 631.078 524.854 631.078 524.707C631.078 524.311 629.772 524.564 629.415 525.03C629.174 525.345 629.024 525.378 628.42 525.239C628.029 525.15 627.567 524.947 627.389 524.786C627.212 524.625 626.753 524.47 626.369 524.443C625.768 524.4 625.653 524.321 625.563 523.87C625.475 523.434 625.386 523.363 625.035 523.452C624.794 523.512 624.582 523.468 624.542 523.347C624.489 523.188 624.372 523.187 624.074 523.347C623.745 523.523 623.634 523.501 623.432 523.212C623.292 523.013 622.834 522.805 622.357 522.724C621.9 522.647 621.346 522.463 621.123 522.316C620.853 522.139 620.497 522.091 620.067 522.172C619.711 522.238 618.958 522.189 618.39 522.062C617.56 521.876 617.299 521.878 617.071 522.067C616.712 522.365 614.863 522.162 614.159 521.748C613.537 521.383 613 521.557 613.163 522.072C613.255 522.36 613.198 522.446 612.91 522.446C612.704 522.446 612.473 522.339 612.392 522.211C612.247 521.983 612.214 521.884 612.168 521.514C612.125 521.175 611.835 521.323 611.62 521.793C611.381 522.318 611.002 522.39 610.66 521.977C610.5 521.785 610.491 521.699 610.635 521.699C610.749 521.699 610.844 521.616 610.844 521.514C610.844 521.412 610.68 521.33 610.475 521.33C610.271 521.33 610.102 521.412 610.102 521.514C610.102 521.773 608.866 521.749 608.375 521.479C608.152 521.357 607.382 521.242 606.668 521.225C604.896 521.183 603.483 521.002 603.044 520.767C602.794 520.633 602.676 520.636 602.676 520.767C602.676 520.873 602.403 520.957 602.068 520.957C601.734 520.957 601.272 521.09 601.043 521.25C600.665 521.515 600.471 521.517 598.947 521.255C598.024 521.097 597.183 520.913 597.076 520.847C596.969 520.781 596.827 520.811 596.762 520.917C596.681 521.049 596.344 521.048 595.682 520.917C594.934 520.769 594.299 520.8 592.855 521.041C591.167 521.324 590.887 521.322 589.828 521.066C588.607 520.771 586.158 520.715 585.488 520.966C584.906 521.185 582.35 520.813 581.655 520.409C581.206 520.147 580.644 520.049 579.475 520.025C578.71 520.01 578.129 519.998 577.683 520ZM631.575 524.358C631.538 524.357 631.511 524.363 631.496 524.378C631.445 524.428 631.45 524.592 631.506 524.736C631.607 525 632.566 525.117 632.566 524.866C632.566 524.714 631.837 524.363 631.575 524.358ZM564.249 524.587C564.02 524.589 563.792 524.657 563.746 524.796C563.667 525.031 564.196 525.211 564.582 525.08C564.714 525.035 564.79 524.906 564.751 524.791C564.705 524.653 564.478 524.585 564.249 524.587ZM633.029 524.856C632.876 524.856 632.75 524.943 632.75 525.045C632.75 525.147 632.876 525.229 633.029 525.229C633.182 525.229 633.308 525.147 633.308 525.045C633.308 524.943 633.182 524.856 633.029 524.856ZM633.875 525.229C633.779 525.229 633.649 525.312 633.586 525.414C633.523 525.516 633.601 525.603 633.761 525.603C633.92 525.603 634.049 525.516 634.049 525.414C634.049 525.312 633.971 525.229 633.875 525.229ZM639.619 525.229C639.517 525.229 639.435 525.312 639.435 525.414C639.435 525.516 639.517 525.603 639.619 525.603C639.721 525.603 639.803 525.516 639.803 525.414C639.803 525.312 639.721 525.229 639.619 525.229ZM632.203 525.603C632.151 525.608 632.103 525.628 632.068 525.663C632.009 525.722 632.013 525.898 632.073 526.056C632.216 526.427 632.75 526.432 632.75 526.061C632.75 525.82 632.425 525.582 632.203 525.603ZM640.57 525.613C640.447 525.626 640.361 525.747 640.361 525.971C640.361 526.176 640.452 526.345 640.565 526.345C640.701 526.345 640.732 526.569 640.65 527.007C640.572 527.422 640.607 527.773 640.744 527.939C641.061 528.321 641.287 528.261 641.287 527.799C641.287 527.449 641.365 527.49 641.884 528.098L642.481 528.795L642.815 528.387C642.997 528.161 643.143 528.069 643.143 528.183C643.143 528.296 643.269 528.387 643.422 528.387C643.575 528.387 643.701 528.223 643.701 528.023C643.701 527.755 643.874 527.63 644.353 527.54C644.828 527.451 645 527.323 645 527.062C645 526.771 644.883 526.713 644.358 526.748C644.004 526.772 643.658 526.73 643.586 526.659C643.515 526.587 643.602 526.529 643.78 526.529C643.959 526.529 644.071 526.428 644.029 526.3C643.941 526.032 642.959 525.863 642.959 526.116C642.959 526.417 641.247 526.234 641.008 525.907C640.855 525.698 640.693 525.6 640.57 525.613ZM638.783 526.345C638.63 526.345 638.504 526.427 638.504 526.529C638.504 526.631 638.621 526.713 638.763 526.713C638.905 526.713 639.07 526.848 639.131 527.007C639.244 527.302 639.619 527.214 639.619 526.893C639.619 526.797 639.494 526.713 639.34 526.713C639.187 526.713 639.062 526.631 639.062 526.529C639.062 526.427 638.936 526.345 638.783 526.345ZM632.008 526.903C631.906 526.903 631.819 527.028 631.819 527.182C631.819 527.335 631.906 527.46 632.008 527.46C632.111 527.46 632.193 527.335 632.193 527.182C632.193 527.028 632.111 526.903 632.008 526.903ZM630.988 527.087C630.835 527.087 630.709 527.169 630.709 527.271C630.709 527.373 630.835 527.46 630.988 527.46C631.141 527.46 631.267 527.373 631.267 527.271C631.267 527.169 631.141 527.087 630.988 527.087ZM547.215 533.033C547.138 533.049 547.05 533.121 547.011 533.237C546.973 533.352 547.036 533.415 547.151 533.377C547.265 533.339 547.36 533.244 547.36 533.168C547.36 533.059 547.293 533.018 547.215 533.033ZM638.808 533.143C637.63 533.138 636.76 533.33 635.627 533.76C634.708 534.109 633.52 534.431 632.984 534.477C632.084 534.555 632.008 534.601 632.008 535.04C632.008 535.849 632.68 536.375 633.711 536.375C634.204 536.375 634.607 536.297 634.607 536.205C634.607 535.954 635.604 535.751 635.682 535.986C635.832 536.437 637.822 536.043 638.021 535.523C638.086 535.355 638.388 535.259 638.853 535.259C639.257 535.259 639.634 535.153 639.694 535.025C639.781 534.839 639.826 534.839 639.913 535.025C640.058 535.337 640.544 535.321 640.908 534.99C641.072 534.843 641.695 534.611 642.297 534.477C644.145 534.067 643.824 533.675 641.381 533.357C640.33 533.22 639.514 533.146 638.808 533.143ZM550.237 534.532C550.022 534.531 549.742 534.544 549.371 534.557L547.857 534.607L547.574 535.389C547.297 536.148 547.302 536.177 547.743 536.544C547.992 536.751 548.29 536.919 548.405 536.923C548.52 536.926 548.717 537.059 548.848 537.216C548.979 537.374 549.206 537.461 549.351 537.406C549.496 537.35 549.724 537.301 549.853 537.301C550.228 537.301 551.257 536.221 551.257 535.827C551.257 535.63 551.174 535.252 551.073 534.985C550.938 534.63 550.881 534.535 550.237 534.532ZM594.323 540.643C594.221 540.643 594.139 540.73 594.139 540.832C594.139 540.934 594.221 541.016 594.323 541.016C594.425 541.016 594.507 540.934 594.507 540.832C594.507 540.73 594.425 540.643 594.323 540.643ZM580.879 541.201C580.381 541.201 580.23 541.472 580.635 541.634C580.956 541.762 581.2 541.686 581.287 541.425C581.331 541.292 581.166 541.201 580.879 541.201ZM577.439 542.132C576.894 542.132 576.592 542.345 576.817 542.57C576.966 542.72 577.313 542.721 577.693 542.575C578.174 542.39 578.025 542.132 577.439 542.132ZM598.589 542.874C598.278 542.874 597.852 543.474 597.852 543.91C597.852 544.114 598.258 543.952 598.594 543.616C599.068 543.142 599.066 542.874 598.589 542.874Z" fill="#F9F9F9" stroke="black" mask="url(#path-53-inside-1_343_106)"/>
<path d="M17.1547 410L18.0391 410.588L18.3293 411.468V412.058L17.7412 413.524V415.288L16.5667 416.461L15.6885 417.051L12.7514 416.756L11.5753 415.583L9.81283 414.993L9.22479 414.407V413.524L10.1076 412.349L13.0462 410H17.1547ZM1.29323 419.402L1 419.105L1.29323 417.344L3.05576 416.168L3.35054 415.288H4.23181L3.93855 417.344L2.46924 417.932L1.58796 419.402H1.29323Z" fill="#F9F9F9"/>
<path d="M50.0605 426.448L48.8828 427.334V427.039L47.1203 427.625L45.651 426.744L42.7138 427.039L41.5378 427.334L40.9513 425.862L40.0684 425.275L39.7768 424.395L38.8939 423.513V422.632L38.0127 422.046L40.9513 421.455L42.4206 419.402L43.3019 418.813L44.1816 419.105L45.6509 421.749H45.9441L46.2374 422.338L45.9441 422.925L46.2374 423.804L47.4135 424.688L47.7067 423.804H48.2947V424.688L48.8828 424.983L49.176 426.158L50.0605 426.448Z" fill="#F9F9F9"/>
<path d="M63.2707 428.801H63.567L64.1551 429.093H64.4467L64.1551 428.506L66.7958 427.92L67.9718 428.215L67.3838 429.391L65.6213 430.564H64.7401L61.2181 429.979L57.105 430.27H56.8087L57.6931 427.92H57.9863L62.0994 428.215L62.9807 428.506L63.2707 428.801ZM70.321 430.857L71.2022 431.152L72.6716 433.503L75.6086 432.035L77.3711 432.328V432.621L79.7217 434.092L81.7774 434.679L82.0707 435.265V436.438L80.8962 437.614L76.4897 439.379H74.4324L73.8444 439.084L73.2579 435.56L72.3782 435.265L71.7902 435.85L70.0277 434.97L68.8531 433.794L68.5583 432.621L69.1464 431.445L69.4396 430.857H70.321ZM62.6857 433.503H64.7399L65.916 434.384L66.5025 435.265L66.2077 436.438L63.567 437.322L63.2706 436.147L62.9805 435.265L61.806 434.092V433.794L62.6857 433.503ZM71.4965 439.379L71.7897 439.671L72.0829 440.846L69.7323 441.433L68.8527 441.138L69.4391 440.261L71.4965 439.379Z" fill="#F9F9F9"/>
<path d="M91.4764 471.109L90.89 471.697L89.7139 470.816L86.7768 469.642L86.1857 468.759L85.8924 468.172L86.1857 463.471L84.1299 458.475L82.9538 457.302L82.0726 456.128L82.3674 455.244L84.1299 453.483L86.1857 450.84V449.665L84.7179 447.609L84.4231 446.434L84.7179 445.256L85.3044 444.963L87.0685 445.256L87.6549 446.137L90.3003 447.316L93.5338 447.902L97.0589 449.372L99.4095 450.84L100.584 452.308L100.877 454.66L102.345 454.365L102.933 455.244V456.421L104.402 457.595L106.458 458.475L105.87 459.651L102.64 462.588L99.996 464.061L97.6454 464.354L95.0015 466.409L93.5338 467.288L91.4764 471.109Z" fill="#F9F9F9"/>
<path d="M62.9818 428.512L62.1006 428.221L64.1563 428.512L64.448 429.098H64.1563L63.5683 428.807H63.2719L62.9818 428.512Z" fill="#F9F9F9"/>
<path d="M17.1547 410L18.0391 410.588L18.3293 411.468V412.058L17.7412 413.524V415.288L16.5667 416.461L15.6885 417.051L12.7514 416.756L11.5753 415.583L9.81283 414.993L9.22479 414.407V413.524L10.1076 412.349L13.0462 410H17.1547ZM1.29323 419.402L1 419.105L1.29323 417.344L3.05576 416.168L3.35054 415.288H4.23181L3.93855 417.344L2.46924 417.932L1.58796 419.402H1.29323Z" stroke="black" stroke-width="0.17829"/>
<path d="M50.0605 426.448L48.8828 427.334V427.039L47.1203 427.625L45.651 426.744L42.7138 427.039L41.5378 427.334L40.9513 425.862L40.0684 425.275L39.7768 424.395L38.8939 423.513V422.632L38.0127 422.046L40.9513 421.455L42.4206 419.402L43.3019 418.813L44.1816 419.105L45.6509 421.749H45.9441L46.2374 422.338L45.9441 422.925L46.2374 423.804L47.4135 424.688L47.7067 423.804H48.2947V424.688L48.8828 424.983L49.176 426.158L50.0605 426.448Z" stroke="black" stroke-width="0.17829"/>
<path d="M63.2707 428.801H63.567L64.1551 429.093H64.4467L64.1551 428.506L66.7958 427.92L67.9718 428.215L67.3838 429.391L65.6213 430.564H64.7401L61.2181 429.979L57.105 430.27H56.8087L57.6931 427.92H57.9863L62.0994 428.215L62.9807 428.506L63.2707 428.801ZM70.321 430.857L71.2022 431.152L72.6716 433.503L75.6086 432.035L77.3711 432.328V432.621L79.7217 434.092L81.7774 434.679L82.0707 435.265V436.438L80.8962 437.614L76.4897 439.379H74.4324L73.8444 439.084L73.2579 435.56L72.3782 435.265L71.7902 435.85L70.0277 434.97L68.8531 433.794L68.5583 432.621L69.1464 431.445L69.4396 430.857H70.321ZM62.6857 433.503H64.7399L65.916 434.384L66.5025 435.265L66.2077 436.438L63.567 437.322L63.2706 436.147L62.9805 435.265L61.806 434.092V433.794L62.6857 433.503ZM71.4965 439.379L71.7897 439.671L72.0829 440.846L69.7323 441.433L68.8527 441.138L69.4391 440.261L71.4965 439.379Z" stroke="black" stroke-width="0.17829"/>
<path d="M91.4764 471.109L90.89 471.697L89.7139 470.816L86.7768 469.642L86.1857 468.759L85.8924 468.172L86.1857 463.471L84.1299 458.475L82.9538 457.302L82.0726 456.128L82.3674 455.244L84.1299 453.483L86.1857 450.84V449.665L84.7179 447.609L84.4231 446.434L84.7179 445.256L85.3044 444.963L87.0685 445.256L87.6549 446.137L90.3003 447.316L93.5338 447.902L97.0589 449.372L99.4095 450.84L100.584 452.308L100.877 454.66L102.345 454.365L102.933 455.244V456.421L104.402 457.595L106.458 458.475L105.87 459.651L102.64 462.588L99.996 464.061L97.6454 464.354L95.0015 466.409L93.5338 467.288L91.4764 471.109Z" stroke="black" stroke-width="0.17829"/>
<path d="M62.9818 428.512L62.1006 428.221L64.1563 428.512L64.448 429.098H64.1563L63.5683 428.807H63.2719L62.9818 428.512Z" stroke="black" stroke-width="0.17829"/>
</svg>
