<svg width="22" height="22" viewBox="0 0 22 22" fill="none" xmlns="http://www.w3.org/2000/svg">
<path d="M2.44242 2C2.55831 1.99965 2.66251 2.02726 2.74242 2.06828C2.74251 2.06833 2.7426 2.06838 2.74269 2.06842L19.8538 10.8684C19.9335 10.9095 19.9731 10.955 19.9889 10.9796C19.9956 10.9899 19.9984 10.9969 19.9995 11C19.9984 11.0031 19.9956 11.0101 19.9889 11.0204C19.9731 11.0449 19.9337 11.0903 19.8543 11.1313C19.8541 11.1314 19.854 11.1315 19.8538 11.1316L2.74269 19.9316C2.66275 19.9727 2.55844 20.0004 2.44242 20C2.32641 19.9996 2.22264 19.9713 2.14352 19.93C2.06507 19.8891 2.02628 19.8441 2.01083 19.8199C2.00323 19.808 2.00077 19.8007 2.00015 19.7986C2.00009 19.7984 2.00004 19.7982 2 19.7981V2.20191C2.00004 2.20176 2.00009 2.20159 2.00015 2.2014C2.00077 2.19932 2.00323 2.19197 2.01083 2.18009C2.02629 2.15595 2.06508 2.11093 2.14352 2.06997C2.22263 2.02866 2.3264 2.00036 2.44242 2Z" stroke="url(#paint0_linear_172_2)" stroke-width="4"/>
<defs>
<linearGradient id="paint0_linear_172_2" x1="0" y1="11" x2="22" y2="11" gradientUnits="userSpaceOnUse">
<stop stop-color="#9EC4D4"/>
<stop offset="1" stop-color="#9FC6D5"/>
</linearGradient>
</defs>
</svg>
